<svg width="50" height="51" viewBox="0 0 50 51" fill="none" xmlns="http://www.w3.org/2000/svg">
<path d="M19.6656 15.0036L29.9531 25.5L19.6641 35.9964L21.875 38.25L34.375 25.5L21.875 12.75L19.6656 15.0036Z" fill="#06CFCE"/>
<path d="M25 47.8125C12.9375 47.8125 3.125 37.8038 3.125 25.5C3.125 13.1962 12.9375 3.1875 25 3.1875C37.0625 3.1875 46.875 13.1963 46.875 25.5C46.875 37.8038 37.0625 47.8125 25 47.8125ZM25 6.375C14.6609 6.375 6.25 14.9542 6.25 25.5C6.25 36.0458 14.6609 44.625 25 44.625C35.3391 44.625 43.75 36.0458 43.75 25.5C43.75 14.9542 35.3391 6.375 25 6.375Z" fill="#06CFCE"/>
</svg>
