<svg width="50" height="50" viewBox="0 0 50 50" fill="none" xmlns="http://www.w3.org/2000/svg">
<path d="M30.3344 14.7094L20.0469 25L30.3359 35.2906L28.125 37.5L15.625 25L28.125 12.5L30.3344 14.7094Z" fill="#06CFCE"/>
<path d="M25 46.875C37.0625 46.875 46.875 37.0625 46.875 25C46.875 12.9375 37.0625 3.125 25 3.125C12.9375 3.125 3.125 12.9375 3.125 25C3.125 37.0625 12.9375 46.875 25 46.875ZM25 6.25C35.3391 6.25 43.75 14.6609 43.75 25C43.75 35.3391 35.3391 43.75 25 43.75C14.6609 43.75 6.25 35.3391 6.25 25C6.25 14.6609 14.6609 6.25 25 6.25Z" fill="#06CFCE"/>
</svg>
