<svg width="42" height="42" viewBox="0 0 42 42" fill="none" xmlns="http://www.w3.org/2000/svg">
<rect width="42" height="42" rx="15" fill="#D3167C"/>
<path d="M31.5805 9.92709C31.8463 9.92709 32.084 10.0278 32.2934 10.2292C32.4867 10.4225 32.5834 10.6561 32.5834 10.93V30.07C32.5834 30.3439 32.4867 30.5775 32.2934 30.7708C32.084 30.9722 31.8463 31.0729 31.5805 31.0729H15.4613C15.1955 31.0729 14.9579 30.9722 14.7484 30.7708C14.5551 30.5775 14.4584 30.3439 14.4584 30.07V26.5417H9.41966C9.15383 26.5417 8.91619 26.445 8.70675 26.2517C8.51341 26.0422 8.41675 25.8046 8.41675 25.5388V15.4613C8.41675 15.1954 8.51341 14.9578 8.70675 14.7483C8.91619 14.555 9.15383 14.4583 9.41966 14.4583H14.4584V10.93C14.4584 10.6561 14.5551 10.4225 14.7484 10.2292C14.9579 10.0278 15.1955 9.92709 15.4613 9.92709M14.4584 21.7808L15.8842 24.4633H18.0472L15.6667 20.5725L17.9988 16.7421H15.9326L14.6155 19.1708L14.5672 19.2433L14.5309 19.3279C14.3215 18.901 14.0959 18.47 13.8542 18.035C13.6529 17.6081 13.4394 17.1771 13.2138 16.7421H11.0267L13.3105 20.5967L10.8334 24.4633H12.9842M22.7717 29.5625V26.5417H15.9688V29.5625M22.7717 25.0313V21.2613H20.5001V25.0313M22.7717 19.7508V15.9688H20.5001V19.7508M22.7717 14.4583V11.4375H15.9688V14.4583M31.073 29.5625V26.5417H24.2822V29.5625M31.073 25.0313V21.2613H24.2822V25.0313M31.073 19.7508V15.9688H24.2822V19.7508M31.073 14.4583V11.4375H24.2822V14.4583H31.073Z" fill="white"/>
</svg>
