<svg width="42" height="42" viewBox="0 0 42 42" fill="none" xmlns="http://www.w3.org/2000/svg">
<rect width="42" height="42" rx="15" fill="#D3167C"/>
<path fill-rule="evenodd" clip-rule="evenodd" d="M25.4128 19.6209C25.237 19.4532 24.9987 19.359 24.7503 19.359C24.5019 19.359 24.2636 19.4532 24.0878 19.6209L21.9378 21.6746V11.8955C21.9378 11.658 21.839 11.4302 21.6632 11.2623C21.4874 11.0943 21.2489 11 21.0003 11C20.7517 11 20.5132 11.0943 20.3374 11.2623C20.1616 11.4302 20.0628 11.658 20.0628 11.8955V21.6746L17.9128 19.6209C17.7351 19.4627 17.5 19.3766 17.2571 19.3807C17.0143 19.3848 16.7825 19.4788 16.6108 19.6428C16.439 19.8069 16.3406 20.0283 16.3363 20.2603C16.332 20.4923 16.4222 20.7168 16.5878 20.8866L20.3378 24.4687C20.5136 24.6364 20.7519 24.7306 21.0003 24.7306C21.2487 24.7306 21.487 24.6364 21.6628 24.4687L25.4128 20.8866C25.5884 20.7187 25.687 20.491 25.687 20.2537C25.687 20.0164 25.5884 19.7888 25.4128 19.6209Z" fill="white"/>
<path d="M28.185 21.4478C27.625 21.4478 27.135 21.7749 26.7387 22.1534L22.9887 25.7355C22.7276 25.985 22.4175 26.1829 22.0763 26.3179C21.7351 26.4529 21.3693 26.5224 21 26.5224C20.6307 26.5224 20.2649 26.4529 19.9237 26.3179C19.5825 26.1829 19.2724 25.985 19.0113 25.7355L15.2612 22.1534C14.865 21.7749 14.375 21.4478 13.815 21.4478H11C11 23.9812 12.0536 26.4108 13.9289 28.2022C15.8043 29.9936 18.3478 31 21 31C23.6522 31 26.1957 29.9936 28.0711 28.2022C29.9464 26.4108 31 23.9812 31 21.4478H28.185Z" fill="white"/>
</svg>
