<svg width="42" height="42" viewBox="0 0 42 42" fill="none" xmlns="http://www.w3.org/2000/svg">
<rect width="42" height="42" rx="15" fill="#D3167C"/>
<path d="M12.3334 19.2667V18.4H11.4667V19.2667H12.3334ZM19.2667 19.2667V18.4H18.4001V19.2667H19.2667ZM19.2667 26.2H18.4001V27.0667H19.2667V26.2ZM31.4001 14.0667H32.2667V13.7079L32.0137 13.4531L31.4001 14.0667ZM26.2001 8.86667L26.8137 8.25307L26.5589 8H26.2001V8.86667ZM12.3334 20.1333H14.0667V18.4H12.3334V20.1333ZM13.2001 27.0667V22.7333H11.4667V27.0667H13.2001ZM13.2001 22.7333V19.2667H11.4667V22.7333H13.2001ZM14.0667 21.8667H12.3334V23.6H14.0667V21.8667ZM14.9334 21C14.9334 21.2299 14.8421 21.4503 14.6796 21.6128C14.517 21.7754 14.2966 21.8667 14.0667 21.8667V23.6C14.7563 23.6 15.4176 23.3261 15.9052 22.8385C16.3928 22.3509 16.6667 21.6896 16.6667 21H14.9334ZM14.0667 20.1333C14.2966 20.1333 14.517 20.2246 14.6796 20.3872C14.8421 20.5497 14.9334 20.7701 14.9334 21H16.6667C16.6667 20.3104 16.3928 19.6491 15.9052 19.1615C15.4176 18.6739 14.7563 18.4 14.0667 18.4V20.1333ZM18.4001 19.2667V26.2H20.1334V19.2667H18.4001ZM19.2667 27.0667H21.0001V25.3333H19.2667V27.0667ZM23.6001 24.4667V21H21.8667V24.4667H23.6001ZM21.0001 18.4H19.2667V20.1333H21.0001V18.4ZM23.6001 21C23.6001 20.3104 23.3261 19.6491 22.8385 19.1615C22.3509 18.6739 21.6896 18.4 21.0001 18.4V20.1333C21.2299 20.1333 21.4504 20.2246 21.6129 20.3872C21.7754 20.5497 21.8667 20.7701 21.8667 21H23.6001ZM21.0001 27.0667C21.6896 27.0667 22.3509 26.7927 22.8385 26.3051C23.3261 25.8176 23.6001 25.1562 23.6001 24.4667H21.8667C21.8667 24.6965 21.7754 24.917 21.6129 25.0795C21.4504 25.242 21.2299 25.3333 21.0001 25.3333V27.0667ZM25.3334 18.4V27.0667H27.0667V18.4H25.3334ZM26.2001 20.1333H30.5334V18.4H26.2001V20.1333ZM26.2001 23.6H28.8001V21.8667H26.2001V23.6ZM11.4667 16.6667V10.6H9.7334V16.6667H11.4667ZM30.5334 14.0667V16.6667H32.2667V14.0667H30.5334ZM12.3334 9.73333H26.2001V8H12.3334V9.73333ZM25.5865 9.48027L30.7865 14.6803L32.0137 13.4531L26.8137 8.25307L25.5865 9.48027ZM11.4667 10.6C11.4667 10.3701 11.558 10.1497 11.7206 9.98717C11.8831 9.82464 12.1035 9.73333 12.3334 9.73333V8C11.6438 8 10.9825 8.27393 10.4949 8.76152C10.0073 9.24912 9.7334 9.91044 9.7334 10.6H11.4667ZM9.7334 28.8V31.4H11.4667V28.8H9.7334ZM12.3334 34H29.6667V32.2667H12.3334V34ZM32.2667 31.4V28.8H30.5334V31.4H32.2667ZM29.6667 34C30.3563 34 31.0176 33.7261 31.5052 33.2385C31.9928 32.7509 32.2667 32.0896 32.2667 31.4H30.5334C30.5334 31.6299 30.4421 31.8503 30.2796 32.0128C30.117 32.1754 29.8966 32.2667 29.6667 32.2667V34ZM9.7334 31.4C9.7334 32.0896 10.0073 32.7509 10.4949 33.2385C10.9825 33.7261 11.6438 34 12.3334 34V32.2667C12.1035 32.2667 11.8831 32.1754 11.7206 32.0128C11.558 31.8503 11.4667 31.6299 11.4667 31.4H9.7334Z" fill="white"/>
</svg>
