<svg width="67" height="37" viewBox="0 0 67 37" fill="none" xmlns="http://www.w3.org/2000/svg">
<path fill-rule="evenodd" clip-rule="evenodd" d="M2.0085 14C1.66727 13.9997 1.33159 14.0802 1.03311 14.2339C0.727016 14.3789 0.469152 14.5987 0.287156 14.8695C0.105161 15.1404 0.00589534 15.4522 0 15.7715V27.2276C0.00589534 27.5469 0.105161 27.8587 0.287156 28.1295C0.469152 28.4004 0.727016 28.6201 1.03311 28.7651C1.337 28.922 1.67949 29.0029 2.0271 28.9999C2.37471 28.9969 2.71552 28.9101 3.01622 28.748L12.9779 23.0204C13.2853 22.8764 13.5437 22.6559 13.7242 22.3834C13.9046 22.1109 14.0001 21.7972 14 21.4772C13.9999 21.1572 13.9041 20.8435 13.7235 20.5712C13.5428 20.2988 13.2843 20.0784 12.9768 19.9346L3.01506 14.25C2.70904 14.0858 2.36184 13.9996 2.0085 14Z" fill="#06CFCE"/>
<path d="M21.856 29.288C20.768 29.288 19.8827 29.1707 19.2 28.936C18.5173 28.68 18.016 28.2107 17.696 27.528C17.376 26.8453 17.216 25.8427 17.216 24.52V16.84C17.216 15.3253 17.568 14.2907 18.272 13.736C18.9973 13.16 20.1493 12.872 21.728 12.872C23.2853 12.872 24.416 13.16 25.12 13.736C25.8453 14.2907 26.208 15.3253 26.208 16.84V20.968H19.648V25.416C19.648 26.3333 19.7867 26.9733 20.064 27.336C20.3627 27.6987 20.9387 27.88 21.792 27.88C22.5813 27.88 23.104 27.7093 23.36 27.368C23.6373 27.0053 23.776 26.3547 23.776 25.416V23.24H26.208V24.488C26.208 25.7893 26.048 26.792 25.728 27.496C25.408 28.1787 24.928 28.648 24.288 28.904C23.648 29.16 22.8373 29.288 21.856 29.288ZM19.648 19.784H23.776V16.712C23.776 15.9013 23.6373 15.3147 23.36 14.952C23.104 14.568 22.56 14.376 21.728 14.376C20.9173 14.376 20.3627 14.568 20.064 14.952C19.7867 15.3147 19.648 15.9013 19.648 16.712V19.784ZM28.818 29V13.16H30.834L31.09 14.888C31.282 14.248 31.6767 13.7573 32.274 13.416C32.8713 13.0533 33.5113 12.872 34.194 12.872C35.282 12.872 36.082 13.064 36.594 13.448C37.1273 13.832 37.4687 14.344 37.618 14.984C37.7887 15.6027 37.874 16.296 37.874 17.064V29H35.442V17.32C35.442 16.9787 35.4313 16.648 35.41 16.328C35.3887 16.008 35.314 15.72 35.186 15.464C35.058 15.208 34.8553 15.0053 34.578 14.856C34.3007 14.7067 33.8953 14.632 33.362 14.632C32.8927 14.632 32.5087 14.7173 32.21 14.888C31.9113 15.0587 31.6873 15.2613 31.538 15.496C31.41 15.7093 31.314 15.9227 31.25 16.136V29H28.818ZM44.4995 29.064C44.0302 29.064 43.5822 29.0107 43.1555 28.904C42.7502 28.7973 42.3982 28.6267 42.0995 28.392C41.8008 28.136 41.5662 27.8053 41.3955 27.4C41.2248 26.9733 41.1395 26.44 41.1395 25.8V14.664H39.6995V13.416L41.2995 13.16L41.7155 10.216H43.5395V13.16H46.8675V14.664H43.5395V25.384C43.5395 25.9387 43.6462 26.408 43.8595 26.792C44.0728 27.176 44.5208 27.368 45.2035 27.368C45.5022 27.368 45.8222 27.3573 46.1635 27.336C46.5048 27.3147 46.7395 27.2933 46.8675 27.272V28.808C46.7395 28.8293 46.4408 28.8827 45.9715 28.968C45.5235 29.032 45.0328 29.064 44.4995 29.064ZM53.0123 29.288C51.9243 29.288 51.0389 29.1707 50.3563 28.936C49.6736 28.68 49.1723 28.2107 48.8523 27.528C48.5323 26.8453 48.3723 25.8427 48.3723 24.52V16.84C48.3723 15.3253 48.7243 14.2907 49.4283 13.736C50.1536 13.16 51.3056 12.872 52.8843 12.872C54.4416 12.872 55.5723 13.16 56.2763 13.736C57.0016 14.2907 57.3643 15.3253 57.3643 16.84V20.968H50.8043V25.416C50.8043 26.3333 50.9429 26.9733 51.2203 27.336C51.5189 27.6987 52.0949 27.88 52.9483 27.88C53.7376 27.88 54.2603 27.7093 54.5163 27.368C54.7936 27.0053 54.9323 26.3547 54.9323 25.416V23.24H57.3643V24.488C57.3643 25.7893 57.2043 26.792 56.8843 27.496C56.5643 28.1787 56.0843 28.648 55.4443 28.904C54.8043 29.16 53.9936 29.288 53.0123 29.288ZM50.8043 19.784H54.9323V16.712C54.9323 15.9013 54.7936 15.3147 54.5163 14.952C54.2603 14.568 53.7163 14.376 52.8843 14.376C52.0736 14.376 51.5189 14.568 51.2203 14.952C50.9429 15.3147 50.8043 15.9013 50.8043 16.712V19.784ZM59.9743 29V13.16H62.0223L62.2463 14.92C62.4809 14.344 62.8436 13.928 63.3343 13.672C63.8249 13.3947 64.3263 13.224 64.8383 13.16C65.4569 12.9893 66.0756 12.9573 66.6943 13.064V14.984C66.6089 14.9627 66.4489 14.9413 66.2143 14.92C66.0009 14.8773 65.7556 14.8667 65.4783 14.888C65.2009 14.888 64.9449 14.9413 64.7103 15.048C64.0276 15.1547 63.4729 15.432 63.0463 15.88C62.6196 16.328 62.4062 16.9147 62.4062 17.64V29H59.9743Z" fill="#ECECED"/>
</svg>
