<svg width="48" height="19" viewBox="0 0 48 19" fill="none" xmlns="http://www.w3.org/2000/svg">
<path d="M11.7232 14.592H4.73919L3.53919 18H0.683188L6.65919 1.296H9.82719L15.8032 18H12.9232L11.7232 14.592ZM10.9552 12.36L8.24319 4.608L5.50719 12.36H10.9552ZM17.4896 11.328C17.4896 10 17.7616 8.824 18.3056 7.8C18.8656 6.776 19.6176 5.984 20.5616 5.424C21.5216 4.848 22.5856 4.56 23.7536 4.56C24.6176 4.56 25.4656 4.752 26.2976 5.136C27.1456 5.504 27.8176 6 28.3136 6.624V0.24H31.0736V18H28.3136V16.008C27.8656 16.648 27.2416 17.176 26.4416 17.592C25.6576 18.008 24.7536 18.216 23.7296 18.216C22.5776 18.216 21.5216 17.928 20.5616 17.352C19.6176 16.76 18.8656 15.944 18.3056 14.904C17.7616 13.848 17.4896 12.656 17.4896 11.328ZM28.3136 11.376C28.3136 10.464 28.1216 9.672 27.7376 9C27.3696 8.328 26.8816 7.816 26.2736 7.464C25.6656 7.112 25.0096 6.936 24.3056 6.936C23.6016 6.936 22.9456 7.112 22.3376 7.464C21.7296 7.8 21.2336 8.304 20.8496 8.976C20.4816 9.632 20.2976 10.416 20.2976 11.328C20.2976 12.24 20.4816 13.04 20.8496 13.728C21.2336 14.416 21.7296 14.944 22.3376 15.312C22.9616 15.664 23.6176 15.84 24.3056 15.84C25.0096 15.84 25.6656 15.664 26.2736 15.312C26.8816 14.96 27.3696 14.448 27.7376 13.776C28.1216 13.088 28.3136 12.288 28.3136 11.376ZM33.7552 11.328C33.7552 10 34.0272 8.824 34.5712 7.8C35.1312 6.776 35.8832 5.984 36.8272 5.424C37.7872 4.848 38.8512 4.56 40.0192 4.56C40.8832 4.56 41.7312 4.752 42.5632 5.136C43.4112 5.504 44.0832 6 44.5792 6.624V0.24H47.3392V18H44.5792V16.008C44.1312 16.648 43.5072 17.176 42.7072 17.592C41.9232 18.008 41.0192 18.216 39.9952 18.216C38.8432 18.216 37.7872 17.928 36.8272 17.352C35.8832 16.76 35.1312 15.944 34.5712 14.904C34.0272 13.848 33.7552 12.656 33.7552 11.328ZM44.5792 11.376C44.5792 10.464 44.3872 9.672 44.0032 9C43.6352 8.328 43.1472 7.816 42.5392 7.464C41.9312 7.112 41.2752 6.936 40.5712 6.936C39.8672 6.936 39.2112 7.112 38.6032 7.464C37.9952 7.8 37.4992 8.304 37.1152 8.976C36.7472 9.632 36.5632 10.416 36.5632 11.328C36.5632 12.24 36.7472 13.04 37.1152 13.728C37.4992 14.416 37.9952 14.944 38.6032 15.312C39.2272 15.664 39.8832 15.84 40.5712 15.84C41.2752 15.84 41.9312 15.664 42.5392 15.312C43.1472 14.96 43.6352 14.448 44.0032 13.776C44.3872 13.088 44.5792 12.288 44.5792 11.376Z" fill="white"/>
</svg>
