<svg width="57" height="26" viewBox="0 0 57 26" fill="none" xmlns="http://www.w3.org/2000/svg">
<path d="M3.12975 1.24V19H0.39375V1.24H3.12975ZM12.4579 19.216C11.2099 19.216 10.0819 18.936 9.07388 18.376C8.06588 17.8 7.27388 17 6.69788 15.976C6.12188 14.936 5.83388 13.736 5.83388 12.376C5.83388 11.032 6.12988 9.84 6.72188 8.8C7.31388 7.76 8.12188 6.96 9.14588 6.4C10.1699 5.84 11.3139 5.56 12.5779 5.56C13.8419 5.56 14.9859 5.84 16.0099 6.4C17.0339 6.96 17.8419 7.76 18.4339 8.8C19.0259 9.84 19.3219 11.032 19.3219 12.376C19.3219 13.72 19.0179 14.912 18.4099 15.952C17.8019 16.992 16.9699 17.8 15.9139 18.376C14.8739 18.936 13.7219 19.216 12.4579 19.216ZM12.4579 16.84C13.1619 16.84 13.8179 16.672 14.4259 16.336C15.0499 16 15.5539 15.496 15.9379 14.824C16.3219 14.152 16.5139 13.336 16.5139 12.376C16.5139 11.416 16.3299 10.608 15.9619 9.952C15.5939 9.28 15.1059 8.776 14.4979 8.44C13.8899 8.104 13.2339 7.936 12.5299 7.936C11.8259 7.936 11.1699 8.104 10.5619 8.44C9.96988 8.776 9.49788 9.28 9.14588 9.952C8.79388 10.608 8.61788 11.416 8.61788 12.376C8.61788 13.8 8.97788 14.904 9.69788 15.688C10.4339 16.456 11.3539 16.84 12.4579 16.84ZM27.3546 5.56C28.3786 5.56 29.2826 5.768 30.0666 6.184C30.8666 6.584 31.4906 7.088 31.9386 7.696V5.776H34.6986V19.216C34.6986 20.432 34.4426 21.512 33.9306 22.456C33.4186 23.416 32.6746 24.168 31.6986 24.712C30.7386 25.256 29.5866 25.528 28.2426 25.528C26.4506 25.528 24.9626 25.104 23.7786 24.256C22.5946 23.424 21.9226 22.288 21.7626 20.848H24.4746C24.6826 21.536 25.1226 22.088 25.7946 22.504C26.4826 22.936 27.2986 23.152 28.2426 23.152C29.3466 23.152 30.2346 22.816 30.9066 22.144C31.5946 21.472 31.9386 20.496 31.9386 19.216V17.008C31.4746 17.632 30.8426 18.16 30.0426 18.592C29.2586 19.008 28.3626 19.216 27.3546 19.216C26.2026 19.216 25.1466 18.928 24.1866 18.352C23.2426 17.76 22.4906 16.944 21.9306 15.904C21.3866 14.848 21.1146 13.656 21.1146 12.328C21.1146 11 21.3866 9.824 21.9306 8.8C22.4906 7.776 23.2426 6.984 24.1866 6.424C25.1466 5.848 26.2026 5.56 27.3546 5.56ZM31.9386 12.376C31.9386 11.464 31.7466 10.672 31.3626 10C30.9946 9.328 30.5066 8.816 29.8986 8.464C29.2906 8.112 28.6346 7.936 27.9306 7.936C27.2266 7.936 26.5706 8.112 25.9626 8.464C25.3546 8.8 24.8586 9.304 24.4746 9.976C24.1066 10.632 23.9226 11.416 23.9226 12.328C23.9226 13.24 24.1066 14.04 24.4746 14.728C24.8586 15.416 25.3546 15.944 25.9626 16.312C26.5866 16.664 27.2426 16.84 27.9306 16.84C28.6346 16.84 29.2906 16.664 29.8986 16.312C30.5066 15.96 30.9946 15.448 31.3626 14.776C31.7466 14.088 31.9386 13.288 31.9386 12.376ZM39.6842 4.024C39.1882 4.024 38.7722 3.856 38.4362 3.52C38.1002 3.184 37.9322 2.768 37.9322 2.272C37.9322 1.776 38.1002 1.36 38.4362 1.024C38.7722 0.687999 39.1882 0.519999 39.6842 0.519999C40.1642 0.519999 40.5722 0.687999 40.9082 1.024C41.2442 1.36 41.4122 1.776 41.4122 2.272C41.4122 2.768 41.2442 3.184 40.9082 3.52C40.5722 3.856 40.1642 4.024 39.6842 4.024ZM41.0282 5.776V19H38.2922V5.776H41.0282ZM51.2923 5.56C52.3323 5.56 53.2603 5.776 54.0763 6.208C54.9083 6.64 55.5563 7.28 56.0203 8.128C56.4843 8.976 56.7163 10 56.7163 11.2V19H54.0043V11.608C54.0043 10.424 53.7083 9.52 53.1163 8.896C52.5243 8.256 51.7163 7.936 50.6923 7.936C49.6683 7.936 48.8523 8.256 48.2443 8.896C47.6523 9.52 47.3563 10.424 47.3563 11.608V19H44.6203V5.776H47.3563V7.288C47.8043 6.744 48.3723 6.32 49.0603 6.016C49.7643 5.712 50.5083 5.56 51.2923 5.56Z" fill="white"/>
</svg>
