<svg width="90" height="26" viewBox="0 0 90 26" fill="none" xmlns="http://www.w3.org/2000/svg">
<path d="M2.84069 7.696C3.24069 7.024 3.76869 6.504 4.42469 6.136C5.09669 5.752 5.88869 5.56 6.80069 5.56V8.392H6.10469C5.03269 8.392 4.21669 8.664 3.65669 9.208C3.11269 9.752 2.84069 10.696 2.84069 12.04V19H0.104688V5.776H2.84069V7.696ZM21.4356 12.064C21.4356 12.56 21.4036 13.008 21.3396 13.408H11.2356C11.3156 14.464 11.7076 15.312 12.4116 15.952C13.1156 16.592 13.9796 16.912 15.0036 16.912C16.4756 16.912 17.5156 16.296 18.1236 15.064H21.0756C20.6756 16.28 19.9476 17.28 18.8916 18.064C17.8516 18.832 16.5556 19.216 15.0036 19.216C13.7396 19.216 12.6036 18.936 11.5956 18.376C10.6036 17.8 9.81963 17 9.24363 15.976C8.68363 14.936 8.40363 13.736 8.40363 12.376C8.40363 11.016 8.67563 9.824 9.21963 8.8C9.77963 7.76 10.5556 6.96 11.5476 6.4C12.5556 5.84 13.7076 5.56 15.0036 5.56C16.2516 5.56 17.3636 5.832 18.3396 6.376C19.3156 6.92 20.0756 7.688 20.6196 8.68C21.1636 9.656 21.4356 10.784 21.4356 12.064ZM18.5796 11.2C18.5636 10.192 18.2036 9.384 17.4996 8.776C16.7956 8.168 15.9236 7.864 14.8836 7.864C13.9396 7.864 13.1316 8.168 12.4596 8.776C11.7876 9.368 11.3876 10.176 11.2596 11.2H18.5796ZM29.4561 5.56C30.4801 5.56 31.3841 5.768 32.1681 6.184C32.9681 6.584 33.5921 7.088 34.0401 7.696V5.776H36.8001V19.216C36.8001 20.432 36.5441 21.512 36.0321 22.456C35.5201 23.416 34.7761 24.168 33.8001 24.712C32.8401 25.256 31.6881 25.528 30.3441 25.528C28.5521 25.528 27.0641 25.104 25.8801 24.256C24.6961 23.424 24.0241 22.288 23.8641 20.848H26.5761C26.7841 21.536 27.2241 22.088 27.8961 22.504C28.5841 22.936 29.4001 23.152 30.3441 23.152C31.4481 23.152 32.3361 22.816 33.0081 22.144C33.6961 21.472 34.0401 20.496 34.0401 19.216V17.008C33.5761 17.632 32.9441 18.16 32.1441 18.592C31.3601 19.008 30.4641 19.216 29.4561 19.216C28.3041 19.216 27.2481 18.928 26.2881 18.352C25.3441 17.76 24.5921 16.944 24.0321 15.904C23.4881 14.848 23.2161 13.656 23.2161 12.328C23.2161 11 23.4881 9.824 24.0321 8.8C24.5921 7.776 25.3441 6.984 26.2881 6.424C27.2481 5.848 28.3041 5.56 29.4561 5.56ZM34.0401 12.376C34.0401 11.464 33.8481 10.672 33.4641 10C33.0961 9.328 32.6081 8.816 32.0001 8.464C31.3921 8.112 30.7361 7.936 30.0321 7.936C29.3281 7.936 28.6721 8.112 28.0641 8.464C27.4561 8.8 26.9601 9.304 26.5761 9.976C26.2081 10.632 26.0241 11.416 26.0241 12.328C26.0241 13.24 26.2081 14.04 26.5761 14.728C26.9601 15.416 27.4561 15.944 28.0641 16.312C28.6881 16.664 29.3441 16.84 30.0321 16.84C30.7361 16.84 31.3921 16.664 32.0001 16.312C32.6081 15.96 33.0961 15.448 33.4641 14.776C33.8481 14.088 34.0401 13.288 34.0401 12.376ZM41.7858 4.024C41.2898 4.024 40.8738 3.856 40.5378 3.52C40.2018 3.184 40.0338 2.768 40.0338 2.272C40.0338 1.776 40.2018 1.36 40.5378 1.024C40.8738 0.687999 41.2898 0.519999 41.7858 0.519999C42.2658 0.519999 42.6738 0.687999 43.0098 1.024C43.3458 1.36 43.5138 1.776 43.5138 2.272C43.5138 2.768 43.3458 3.184 43.0098 3.52C42.6738 3.856 42.2658 4.024 41.7858 4.024ZM43.1298 5.776V19H40.3938V5.776H43.1298ZM51.5219 19.216C50.4819 19.216 49.5459 19.032 48.7139 18.664C47.8979 18.28 47.2499 17.768 46.7699 17.128C46.2899 16.472 46.0339 15.744 46.0019 14.944H48.8339C48.8819 15.504 49.1459 15.976 49.6259 16.36C50.1219 16.728 50.7379 16.912 51.4739 16.912C52.2419 16.912 52.8339 16.768 53.2499 16.48C53.6819 16.176 53.8979 15.792 53.8979 15.328C53.8979 14.832 53.6579 14.464 53.1779 14.224C52.7139 13.984 51.9699 13.72 50.9459 13.432C49.9539 13.16 49.1459 12.896 48.5219 12.64C47.8979 12.384 47.3539 11.992 46.8899 11.464C46.4419 10.936 46.2179 10.24 46.2179 9.376C46.2179 8.672 46.4259 8.032 46.8419 7.456C47.2579 6.864 47.8499 6.4 48.6179 6.064C49.4019 5.728 50.2979 5.56 51.3059 5.56C52.8099 5.56 54.0179 5.944 54.9299 6.712C55.8579 7.464 56.3539 8.496 56.4179 9.808H53.6819C53.6339 9.216 53.3939 8.744 52.9619 8.392C52.5299 8.04 51.9459 7.864 51.2099 7.864C50.4899 7.864 49.9379 8 49.5539 8.272C49.1699 8.544 48.9779 8.904 48.9779 9.352C48.9779 9.704 49.1059 10 49.3619 10.24C49.6179 10.48 49.9299 10.672 50.2979 10.816C50.6659 10.944 51.2099 11.112 51.9299 11.32C52.8899 11.576 53.6739 11.84 54.2819 12.112C54.9059 12.368 55.4419 12.752 55.8899 13.264C56.3379 13.776 56.5699 14.456 56.5859 15.304C56.5859 16.056 56.3779 16.728 55.9619 17.32C55.5459 17.912 54.9539 18.376 54.1859 18.712C53.4339 19.048 52.5459 19.216 51.5219 19.216ZM62.7342 8.008V15.328C62.7342 15.824 62.8462 16.184 63.0702 16.408C63.3102 16.616 63.7102 16.72 64.2702 16.72H65.9502V19H63.7902C62.5582 19 61.6142 18.712 60.9582 18.136C60.3022 17.56 59.9742 16.624 59.9742 15.328V8.008H58.4142V5.776H59.9742V2.488H62.7342V5.776H65.9502V8.008H62.7342ZM80.5919 12.064C80.5919 12.56 80.5599 13.008 80.4959 13.408H70.3919C70.4719 14.464 70.8639 15.312 71.5679 15.952C72.2719 16.592 73.1359 16.912 74.1599 16.912C75.6319 16.912 76.6719 16.296 77.2799 15.064H80.2319C79.8319 16.28 79.1039 17.28 78.0479 18.064C77.0079 18.832 75.7119 19.216 74.1599 19.216C72.8959 19.216 71.7599 18.936 70.7519 18.376C69.7599 17.8 68.9759 17 68.3999 15.976C67.8399 14.936 67.5599 13.736 67.5599 12.376C67.5599 11.016 67.8319 9.824 68.3759 8.8C68.9359 7.76 69.7119 6.96 70.7039 6.4C71.7119 5.84 72.8639 5.56 74.1599 5.56C75.4079 5.56 76.5199 5.832 77.4959 6.376C78.4719 6.92 79.2319 7.688 79.7759 8.68C80.3199 9.656 80.5919 10.784 80.5919 12.064ZM77.7359 11.2C77.7199 10.192 77.3599 9.384 76.6559 8.776C75.9519 8.168 75.0799 7.864 74.0399 7.864C73.0959 7.864 72.2879 8.168 71.6159 8.776C70.9439 9.368 70.5439 10.176 70.4159 11.2H77.7359ZM86.0204 7.696C86.4204 7.024 86.9484 6.504 87.6044 6.136C88.2764 5.752 89.0684 5.56 89.9804 5.56V8.392H89.2844C88.2124 8.392 87.3964 8.664 86.8364 9.208C86.2924 9.752 86.0204 10.696 86.0204 12.04V19H83.2844V5.776H86.0204V7.696Z" fill="white"/>
</svg>
