<svg width="69" height="19" viewBox="0 0 69 19" fill="none" xmlns="http://www.w3.org/2000/svg">
<path d="M12.606 10.488H7.75797V15.456H5.21397V10.488H0.365969V8.184H5.21397V3.216H7.75797V8.184H12.606V10.488ZM22.1732 11.328C22.1732 10 22.4452 8.824 22.9892 7.8C23.5492 6.776 24.3012 5.984 25.2452 5.424C26.2052 4.848 27.2612 4.56 28.4132 4.56C29.4532 4.56 30.3572 4.768 31.1252 5.184C31.9092 5.584 32.5332 6.088 32.9972 6.696V4.776H35.7572V18H32.9972V16.032C32.5332 16.656 31.9012 17.176 31.1012 17.592C30.3012 18.008 29.3892 18.216 28.3652 18.216C27.2292 18.216 26.1892 17.928 25.2452 17.352C24.3012 16.76 23.5492 15.944 22.9892 14.904C22.4452 13.848 22.1732 12.656 22.1732 11.328ZM32.9972 11.376C32.9972 10.464 32.8052 9.672 32.4212 9C32.0532 8.328 31.5652 7.816 30.9572 7.464C30.3492 7.112 29.6932 6.936 28.9892 6.936C28.2852 6.936 27.6292 7.112 27.0212 7.464C26.4132 7.8 25.9172 8.304 25.5332 8.976C25.1652 9.632 24.9812 10.416 24.9812 11.328C24.9812 12.24 25.1652 13.04 25.5332 13.728C25.9172 14.416 26.4132 14.944 27.0212 15.312C27.6452 15.664 28.3012 15.84 28.9892 15.84C29.6932 15.84 30.3492 15.664 30.9572 15.312C31.5652 14.96 32.0532 14.448 32.4212 13.776C32.8052 13.088 32.9972 12.288 32.9972 11.376ZM38.4388 11.328C38.4388 10 38.7108 8.824 39.2548 7.8C39.8148 6.776 40.5668 5.984 41.5108 5.424C42.4708 4.848 43.5348 4.56 44.7028 4.56C45.5668 4.56 46.4148 4.752 47.2468 5.136C48.0948 5.504 48.7668 6 49.2628 6.624V0.24H52.0228V18H49.2628V16.008C48.8148 16.648 48.1908 17.176 47.3908 17.592C46.6068 18.008 45.7028 18.216 44.6788 18.216C43.5268 18.216 42.4708 17.928 41.5108 17.352C40.5668 16.76 39.8148 15.944 39.2548 14.904C38.7108 13.848 38.4388 12.656 38.4388 11.328ZM49.2628 11.376C49.2628 10.464 49.0708 9.672 48.6868 9C48.3188 8.328 47.8308 7.816 47.2228 7.464C46.6148 7.112 45.9588 6.936 45.2548 6.936C44.5508 6.936 43.8948 7.112 43.2868 7.464C42.6788 7.8 42.1828 8.304 41.7988 8.976C41.4308 9.632 41.2468 10.416 41.2468 11.328C41.2468 12.24 41.4308 13.04 41.7988 13.728C42.1828 14.416 42.6788 14.944 43.2868 15.312C43.9108 15.664 44.5668 15.84 45.2548 15.84C45.9588 15.84 46.6148 15.664 47.2228 15.312C47.8308 14.96 48.3188 14.448 48.6868 13.776C49.0708 13.088 49.2628 12.288 49.2628 11.376ZM54.7044 11.328C54.7044 10 54.9764 8.824 55.5204 7.8C56.0804 6.776 56.8324 5.984 57.7764 5.424C58.7364 4.848 59.8004 4.56 60.9684 4.56C61.8324 4.56 62.6804 4.752 63.5124 5.136C64.3604 5.504 65.0324 6 65.5284 6.624V0.24H68.2884V18H65.5284V16.008C65.0804 16.648 64.4564 17.176 63.6564 17.592C62.8724 18.008 61.9684 18.216 60.9444 18.216C59.7924 18.216 58.7364 17.928 57.7764 17.352C56.8324 16.76 56.0804 15.944 55.5204 14.904C54.9764 13.848 54.7044 12.656 54.7044 11.328ZM65.5284 11.376C65.5284 10.464 65.3364 9.672 64.9524 9C64.5844 8.328 64.0964 7.816 63.4884 7.464C62.8804 7.112 62.2244 6.936 61.5204 6.936C60.8164 6.936 60.1604 7.112 59.5524 7.464C58.9444 7.8 58.4484 8.304 58.0644 8.976C57.6964 9.632 57.5124 10.416 57.5124 11.328C57.5124 12.24 57.6964 13.04 58.0644 13.728C58.4484 14.416 58.9444 14.944 59.5524 15.312C60.1764 15.664 60.8324 15.84 61.5204 15.84C62.2244 15.84 62.8804 15.664 63.4884 15.312C64.0964 14.96 64.5844 14.448 64.9524 13.776C65.3364 13.088 65.5284 12.288 65.5284 11.376Z" fill="white"/>
</svg>
