<svg width="45" height="20" viewBox="0 0 45 20" fill="none" xmlns="http://www.w3.org/2000/svg">
<path d="M13.252 12.064C13.252 12.56 13.22 13.008 13.156 13.408H3.05203C3.13203 14.464 3.52403 15.312 4.22803 15.952C4.93203 16.592 5.79603 16.912 6.82003 16.912C8.29203 16.912 9.33203 16.296 9.94003 15.064H12.892C12.492 16.28 11.764 17.28 10.708 18.064C9.66803 18.832 8.37203 19.216 6.82003 19.216C5.55603 19.216 4.42003 18.936 3.41203 18.376C2.42003 17.8 1.63603 17 1.06003 15.976C0.500031 14.936 0.220031 13.736 0.220031 12.376C0.220031 11.016 0.492031 9.824 1.03603 8.8C1.59603 7.76 2.37203 6.96 3.36403 6.4C4.37203 5.84 5.52403 5.56 6.82003 5.56C8.06803 5.56 9.18003 5.832 10.156 6.376C11.132 6.92 11.892 7.688 12.436 8.68C12.98 9.656 13.252 10.784 13.252 12.064ZM10.396 11.2C10.38 10.192 10.02 9.384 9.31603 8.776C8.61203 8.168 7.74003 7.864 6.70003 7.864C5.75603 7.864 4.94803 8.168 4.27603 8.776C3.60403 9.368 3.20403 10.176 3.07603 11.2H10.396ZM15.0325 12.328C15.0325 11 15.3045 9.824 15.8485 8.8C16.4085 7.776 17.1605 6.984 18.1045 6.424C19.0645 5.848 20.1285 5.56 21.2965 5.56C22.1605 5.56 23.0085 5.752 23.8405 6.136C24.6885 6.504 25.3605 7 25.8565 7.624V1.24H28.6165V19H25.8565V17.008C25.4085 17.648 24.7845 18.176 23.9845 18.592C23.2005 19.008 22.2965 19.216 21.2725 19.216C20.1205 19.216 19.0645 18.928 18.1045 18.352C17.1605 17.76 16.4085 16.944 15.8485 15.904C15.3045 14.848 15.0325 13.656 15.0325 12.328ZM25.8565 12.376C25.8565 11.464 25.6645 10.672 25.2805 10C24.9125 9.328 24.4245 8.816 23.8165 8.464C23.2085 8.112 22.5525 7.936 21.8485 7.936C21.1445 7.936 20.4885 8.112 19.8805 8.464C19.2725 8.8 18.7765 9.304 18.3925 9.976C18.0245 10.632 17.8405 11.416 17.8405 12.328C17.8405 13.24 18.0245 14.04 18.3925 14.728C18.7765 15.416 19.2725 15.944 19.8805 16.312C20.5045 16.664 21.1605 16.84 21.8485 16.84C22.5525 16.84 23.2085 16.664 23.8165 16.312C24.4245 15.96 24.9125 15.448 25.2805 14.776C25.6645 14.088 25.8565 13.288 25.8565 12.376ZM33.6022 4.024C33.1062 4.024 32.6902 3.856 32.3542 3.52C32.0182 3.184 31.8502 2.768 31.8502 2.272C31.8502 1.776 32.0182 1.36 32.3542 1.024C32.6902 0.687999 33.1062 0.519999 33.6022 0.519999C34.0822 0.519999 34.4902 0.687999 34.8262 1.024C35.1622 1.36 35.3302 1.776 35.3302 2.272C35.3302 2.768 35.1622 3.184 34.8262 3.52C34.4902 3.856 34.0822 4.024 33.6022 4.024ZM34.9462 5.776V19H32.2102V5.776H34.9462ZM41.7303 8.008V15.328C41.7303 15.824 41.8423 16.184 42.0663 16.408C42.3063 16.616 42.7063 16.72 43.2663 16.72H44.9463V19H42.7863C41.5543 19 40.6103 18.712 39.9543 18.136C39.2983 17.56 38.9703 16.624 38.9703 15.328V8.008H37.4103V5.776H38.9703V2.488H41.7303V5.776H44.9463V8.008H41.7303Z" fill="white"/>
</svg>
