<svg width="28" height="11" viewBox="0 0 28 11" fill="none" xmlns="http://www.w3.org/2000/svg">
<path d="M3.76264 8.776L5.63464 3.388H7.08664L4.56664 10H2.93464L0.426641 3.388H1.89064L3.76264 8.776ZM8.8167 2.512C8.5687 2.512 8.3607 2.428 8.1927 2.26C8.0247 2.092 7.9407 1.884 7.9407 1.636C7.9407 1.388 8.0247 1.18 8.1927 1.012C8.3607 0.844 8.5687 0.76 8.8167 0.76C9.0567 0.76 9.2607 0.844 9.4287 1.012C9.5967 1.18 9.6807 1.388 9.6807 1.636C9.6807 1.884 9.5967 2.092 9.4287 2.26C9.2607 2.428 9.0567 2.512 8.8167 2.512ZM9.4887 3.388V10H8.1207V3.388H9.4887ZM17.3448 6.532C17.3448 6.78 17.3288 7.004 17.2968 7.204H12.2448C12.2848 7.732 12.4808 8.156 12.8328 8.476C13.1848 8.796 13.6168 8.956 14.1288 8.956C14.8648 8.956 15.3848 8.648 15.6888 8.032H17.1648C16.9648 8.64 16.6008 9.14 16.0728 9.532C15.5528 9.916 14.9048 10.108 14.1288 10.108C13.4968 10.108 12.9288 9.968 12.4248 9.688C11.9288 9.4 11.5368 9 11.2488 8.488C10.9688 7.968 10.8288 7.368 10.8288 6.688C10.8288 6.008 10.9648 5.412 11.2368 4.9C11.5168 4.38 11.9048 3.98 12.4008 3.7C12.9048 3.42 13.4808 3.28 14.1288 3.28C14.7528 3.28 15.3088 3.416 15.7968 3.688C16.2848 3.96 16.6648 4.344 16.9368 4.84C17.2088 5.328 17.3448 5.892 17.3448 6.532ZM15.9168 6.1C15.9088 5.596 15.7288 5.192 15.3768 4.888C15.0248 4.584 14.5888 4.432 14.0688 4.432C13.5968 4.432 13.1928 4.584 12.8568 4.888C12.5208 5.184 12.3208 5.588 12.2568 6.1H15.9168ZM27.571 3.388L25.519 10H24.079L22.747 5.116L21.415 10H19.975L17.911 3.388H19.303L20.683 8.704L22.087 3.388H23.515L24.859 8.68L26.227 3.388H27.571Z" fill="white"/>
</svg>
