<svg width="35" height="35" viewBox="0 0 35 35" fill="none" xmlns="http://www.w3.org/2000/svg">
<path d="M31.3374 22.5586C31.4461 22.7475 31.4754 22.9719 31.4188 23.1824C31.3621 23.3929 31.2241 23.5723 31.0352 23.6811C30.8463 23.7898 30.6219 23.8191 30.4114 23.7624C30.2009 23.7058 30.0215 23.5678 29.9127 23.3789L27.1784 18.5828C25.5614 19.7163 23.7561 20.5538 21.8463 21.056L22.6899 26.1146C22.7077 26.2209 22.7044 26.3297 22.6802 26.4347C22.6559 26.5397 22.6112 26.6389 22.5486 26.7267C22.4861 26.8144 22.4068 26.8889 22.3154 26.946C22.224 27.0031 22.1222 27.0416 22.0159 27.0594C21.9706 27.0663 21.9249 27.0699 21.8792 27.0703C21.6854 27.0701 21.498 27.0014 21.3502 26.8763C21.2023 26.7511 21.1034 26.5777 21.0711 26.3867L20.2344 21.3883C18.4226 21.6728 16.5775 21.6728 14.7657 21.3883L13.9344 26.3867C13.9021 26.5779 13.8031 26.7515 13.6549 26.8767C13.5067 27.0018 13.319 27.0704 13.1251 27.0703C13.0793 27.0699 13.0336 27.0663 12.9883 27.0594C12.882 27.0415 12.7803 27.0028 12.6889 26.9456C12.5975 26.8883 12.5184 26.8136 12.4559 26.7258C12.3934 26.6379 12.3489 26.5386 12.3248 26.4335C12.3008 26.3284 12.2977 26.2196 12.3157 26.1133L13.1592 21.0547C11.2495 20.5524 9.44413 19.715 7.8272 18.5814L5.08736 23.3789C4.97858 23.5678 4.79921 23.7058 4.58871 23.7624C4.3782 23.8191 4.15381 23.7898 3.9649 23.6811C3.77598 23.5723 3.63802 23.3929 3.58136 23.1824C3.52469 22.9719 3.55397 22.7475 3.66275 22.5586L6.51334 17.5711C5.49922 16.7154 4.56938 15.7645 3.73658 14.7314C3.59988 14.5621 3.53604 14.3454 3.55912 14.129C3.5822 13.9126 3.69029 13.7142 3.85963 13.5775C4.02896 13.4408 4.24566 13.377 4.46206 13.4001C4.67846 13.4232 4.87683 13.5312 5.01353 13.7006C7.31998 16.558 11.3573 19.9609 17.5001 19.9609C23.6428 19.9609 27.6801 16.558 29.9866 13.7033C30.1233 13.534 30.3216 13.4259 30.538 13.4028C30.7544 13.3797 30.9712 13.4436 31.1405 13.5803C31.3098 13.717 31.4179 13.9153 31.441 14.1317C31.4641 14.3481 31.4002 14.5648 31.2635 14.7342C30.4307 15.7672 29.5009 16.7181 28.4868 17.5738L31.3374 22.5586Z" fill="#06CFCE"/>
</svg>
