<svg width="33" height="20" viewBox="0 0 33 20" fill="none" xmlns="http://www.w3.org/2000/svg">
<path d="M32 9C30.431 6.56811 28.1723 4.54827 25.4513 3.14385C22.7302 1.73943 19.6428 1 16.5 1C13.3572 1 10.2698 1.73943 7.54875 3.14385C4.82769 4.54827 2.56897 6.56811 1 9" stroke="#06CFCE" stroke-width="2" stroke-linecap="round" stroke-linejoin="round"/>
<path d="M16.5 16C19.5376 16 22 13.3137 22 10C22 6.68629 19.5376 4 16.5 4C13.4624 4 11 6.68629 11 10C11 13.3137 13.4624 16 16.5 16Z" stroke="#06CFCE" stroke-width="2" stroke-linecap="round" stroke-linejoin="round"/>
<path d="M1 9C2.56897 12.0399 4.82769 14.5647 7.54875 16.3202C10.2698 18.0757 13.3572 19 16.5 19C19.6428 19 22.7302 18.0757 25.4513 16.3202C28.1723 14.5647 30.431 12.0399 32 9" stroke="#06CFCE" stroke-width="2" stroke-linecap="round" stroke-linejoin="round"/>
</svg>
