<svg width="167" height="34" viewBox="0 0 167 34" fill="none" xmlns="http://www.w3.org/2000/svg">
<path d="M0.234375 4.39648C0.234375 3.9043 0.328125 3.44141 0.515625 3.00781C0.703125 2.5625 0.960938 2.18164 1.28906 1.86523C1.61719 1.53711 1.99805 1.2793 2.43164 1.0918C2.87695 0.892578 3.3457 0.792969 3.83789 0.792969H17.5137C18.0059 0.792969 18.4688 0.892578 18.9023 1.0918C19.3477 1.2793 19.7344 1.53711 20.0625 1.86523C20.3906 2.18164 20.6484 2.5625 20.8359 3.00781C21.0234 3.44141 21.1172 3.9043 21.1172 4.39648V7.64844H17.5137V4.39648H3.83789V22.3965H17.5137V16.2793H10.6758V12.6758H21.1172V22.3965C21.1172 22.8887 21.0234 23.3574 20.8359 23.8027C20.6484 24.2363 20.3906 24.6172 20.0625 24.9453C19.7344 25.2734 19.3477 25.5312 18.9023 25.7188C18.4688 25.9062 18.0059 26 17.5137 26H3.83789C3.3457 26 2.87695 25.9062 2.43164 25.7188C1.99805 25.5312 1.61719 25.2734 1.28906 24.9453C0.960938 24.6172 0.703125 24.2363 0.515625 23.8027C0.328125 23.3574 0.234375 22.8887 0.234375 22.3965V4.39648ZM27.2344 17.8262C27.2344 17.3457 27.3223 16.9004 27.498 16.4902C27.6855 16.0684 27.9316 15.6992 28.2363 15.3828C28.5527 15.0664 28.9219 14.8203 29.3438 14.6445C29.7656 14.457 30.2109 14.3633 30.6797 14.3633H39.6094V10.7422H28.3066V7.2793H39.6094C40.0898 7.2793 40.541 7.37305 40.9629 7.56055C41.3848 7.73633 41.748 7.98242 42.0527 8.29883C42.3691 8.60352 42.6152 8.9668 42.791 9.38867C42.9785 9.81055 43.0723 10.2617 43.0723 10.7422V26H39.6094V22.8359C39.5742 23.2695 39.457 23.6797 39.2578 24.0664C39.0586 24.4531 38.8008 24.793 38.4844 25.0859C38.1797 25.3672 37.8281 25.5898 37.4297 25.7539C37.0312 25.918 36.6094 26 36.1641 26H30.6797C30.2109 26 29.7656 25.9121 29.3438 25.7363C28.9219 25.5488 28.5527 25.3027 28.2363 24.998C27.9316 24.6816 27.6855 24.3125 27.498 23.8906C27.3223 23.4688 27.2344 23.0176 27.2344 22.5371V17.8262ZM30.6797 22.5371H39.6094V17.8262H30.6797V22.5371ZM63.6914 10.7422V26H60.2285V10.7422H52.3008V26H48.8555V7.2793H52.3008V10.584C52.3242 10.127 52.4297 9.69922 52.6172 9.30078C52.8047 8.89062 53.0508 8.53906 53.3555 8.24609C53.6719 7.94141 54.0352 7.70703 54.4453 7.54297C54.8555 7.36719 55.2949 7.2793 55.7637 7.2793H60.2285C60.6855 7.2793 61.1191 7.36719 61.5293 7.54297C61.9395 7.70703 62.3027 7.94141 62.6191 8.24609C62.9355 8.53906 63.1875 8.89062 63.375 9.30078C63.5742 9.69922 63.6797 10.127 63.6914 10.584C63.7148 10.127 63.8145 9.69922 63.9902 9.30078C64.1777 8.89062 64.4238 8.53906 64.7285 8.24609C65.0449 7.94141 65.4082 7.70703 65.8184 7.54297C66.2285 7.36719 66.668 7.2793 67.1367 7.2793H71.6016C72.082 7.2793 72.5332 7.37305 72.9551 7.56055C73.377 7.73633 73.7402 7.98242 74.0449 8.29883C74.3613 8.60352 74.6074 8.9668 74.7832 9.38867C74.9707 9.81055 75.0645 10.2617 75.0645 10.7422V26H71.6016V10.7422H63.6914ZM96.6855 18.4062H84.293V22.5371H96.6855V26H84.293C83.8242 26 83.3789 25.9121 82.957 25.7363C82.5352 25.5488 82.166 25.3027 81.8496 24.998C81.5449 24.6816 81.2988 24.3125 81.1113 23.8906C80.9355 23.4688 80.8477 23.0176 80.8477 22.5371V10.7422C80.8477 10.2617 80.9355 9.81055 81.1113 9.38867C81.2988 8.9668 81.5449 8.60352 81.8496 8.29883C82.166 7.98242 82.5352 7.73633 82.957 7.56055C83.3789 7.37305 83.8242 7.2793 84.293 7.2793H93.2227C93.7031 7.2793 94.1543 7.37305 94.5762 7.56055C94.998 7.73633 95.3613 7.98242 95.666 8.29883C95.9824 8.60352 96.2285 8.9668 96.4043 9.38867C96.5918 9.81055 96.6855 10.2617 96.6855 10.7422V18.4062ZM84.293 10.7422V14.9434H93.2227V10.7422H84.293ZM113.982 0.792969L123.703 26H120.1L117.867 20.1992H106.494L104.262 26H100.658L110.379 0.792969H113.982ZM107.865 16.5957H116.479L112.189 5.48633L107.865 16.5957ZM144.234 22.5371C144.234 23.0176 144.141 23.4688 143.953 23.8906C143.777 24.3125 143.531 24.6816 143.215 24.998C142.91 25.3027 142.547 25.5488 142.125 25.7363C141.703 25.9121 141.252 26 140.771 26H131.121V33.5586H127.676V7.2793H131.121V10.4434C131.156 9.99805 131.273 9.58789 131.473 9.21289C131.672 8.82617 131.924 8.49219 132.229 8.21094C132.533 7.91797 132.885 7.68945 133.283 7.52539C133.693 7.36133 134.127 7.2793 134.584 7.2793H140.771C141.252 7.2793 141.703 7.37305 142.125 7.56055C142.547 7.73633 142.91 7.98242 143.215 8.29883C143.531 8.60352 143.777 8.9668 143.953 9.38867C144.141 9.81055 144.234 10.2617 144.234 10.7422V22.5371ZM140.771 22.5371V10.7422H131.121V22.5371H140.771ZM166.559 22.5371C166.559 23.0176 166.465 23.4688 166.277 23.8906C166.102 24.3125 165.855 24.6816 165.539 24.998C165.234 25.3027 164.871 25.5488 164.449 25.7363C164.027 25.9121 163.576 26 163.096 26H153.445V33.5586H150V7.2793H153.445V10.4434C153.48 9.99805 153.598 9.58789 153.797 9.21289C153.996 8.82617 154.248 8.49219 154.553 8.21094C154.857 7.91797 155.209 7.68945 155.607 7.52539C156.018 7.36133 156.451 7.2793 156.908 7.2793H163.096C163.576 7.2793 164.027 7.37305 164.449 7.56055C164.871 7.73633 165.234 7.98242 165.539 8.29883C165.855 8.60352 166.102 8.9668 166.277 9.38867C166.465 9.81055 166.559 10.2617 166.559 10.7422V22.5371ZM163.096 22.5371V10.7422H153.445V22.5371H163.096Z" fill="#06CFCE"/>
</svg>
