<svg width="69" height="26" viewBox="0 0 69 26" fill="none" xmlns="http://www.w3.org/2000/svg">
<path d="M0.234375 0.792969H18.6035V4.39648H3.83789V11.6035H16.4414V15.207H3.83789V22.3965H18.6035V26H0.234375V0.792969ZM23.6484 10.7422C23.6484 10.2617 23.7363 9.81055 23.9121 9.38867C24.0996 8.9668 24.3457 8.60352 24.6504 8.29883C24.9668 7.98242 25.3359 7.73633 25.7578 7.56055C26.1797 7.37305 26.625 7.2793 27.0938 7.2793H36.7441V0.0722656H40.207V26H36.7441V22.8359C36.709 23.2695 36.5918 23.6797 36.3926 24.0664C36.1934 24.4531 35.9355 24.793 35.6191 25.0859C35.3145 25.3672 34.9629 25.5898 34.5645 25.7539C34.166 25.918 33.7441 26 33.2988 26H27.0938C26.625 26 26.1797 25.9121 25.7578 25.7363C25.3359 25.5488 24.9668 25.3027 24.6504 24.998C24.3457 24.6816 24.0996 24.3125 23.9121 23.8906C23.7363 23.4688 23.6484 23.0176 23.6484 22.5371V10.7422ZM27.0938 22.5371H36.7441V10.7422H27.0938V22.5371ZM49.6113 7.2793V26H46.1484V7.2793H49.6113ZM45.9727 0.0722656H49.7871V3.67578H45.9727V0.0722656ZM54.4805 7.2793H59.0508V1.51367H62.5137V7.2793H68.666V10.7422H62.5137V22.5371H68.666V26H62.5137C62.0449 26 61.5996 25.9121 61.1777 25.7363C60.7559 25.5488 60.3867 25.3027 60.0703 24.998C59.7539 24.6816 59.502 24.3125 59.3145 23.8906C59.1387 23.4688 59.0508 23.0176 59.0508 22.5371V10.7422H54.4805V7.2793Z" fill="#06CFCE"/>
</svg>
