<svg width="168" height="26" viewBox="0 0 168 26" fill="none" xmlns="http://www.w3.org/2000/svg">
<path d="M0.433594 0.792969H4.03711V22.3965H18.4336V0.792969H22.0371V22.3965C22.0371 22.8887 21.9434 23.3574 21.7559 23.8027C21.5684 24.2363 21.3105 24.6172 20.9824 24.9453C20.6543 25.2734 20.2676 25.5312 19.8223 25.7188C19.3887 25.9062 18.9258 26 18.4336 26H4.03711C3.54492 26 3.07617 25.9062 2.63086 25.7188C2.19727 25.5312 1.81641 25.2734 1.48828 24.9453C1.16016 24.6172 0.902344 24.2363 0.714844 23.8027C0.527344 23.3574 0.433594 22.8887 0.433594 22.3965V0.792969ZM39.4746 22.5371V18.1953H31.2656C30.7852 18.1953 30.334 18.1074 29.9121 17.9316C29.4902 17.7441 29.1211 17.498 28.8047 17.1934C28.5 16.877 28.2539 16.5078 28.0664 16.0859C27.8906 15.6641 27.8027 15.2129 27.8027 14.7324V10.7422C27.8027 10.2617 27.8906 9.81055 28.0664 9.38867C28.2539 8.9668 28.5 8.60352 28.8047 8.29883C29.1211 7.98242 29.4902 7.73633 29.9121 7.56055C30.334 7.37305 30.7852 7.2793 31.2656 7.2793H42.2168V10.7422H31.2656V14.7324H39.4746C39.9551 14.7324 40.4004 14.8262 40.8105 15.0137C41.2324 15.1895 41.6016 15.4355 41.918 15.752C42.2344 16.0566 42.4805 16.4199 42.6562 16.8418C42.8438 17.2637 42.9375 17.7148 42.9375 18.1953V22.5371C42.9375 23.0176 42.8438 23.4688 42.6562 23.8906C42.4805 24.3125 42.2344 24.6816 41.918 24.998C41.6016 25.3027 41.2324 25.5488 40.8105 25.7363C40.4004 25.9121 39.9551 26 39.4746 26H27.8027V22.5371H39.4746ZM64.1895 18.4062H51.7969V22.5371H64.1895V26H51.7969C51.3281 26 50.8828 25.9121 50.4609 25.7363C50.0391 25.5488 49.6699 25.3027 49.3535 24.998C49.0488 24.6816 48.8027 24.3125 48.6152 23.8906C48.4395 23.4688 48.3516 23.0176 48.3516 22.5371V10.7422C48.3516 10.2617 48.4395 9.81055 48.6152 9.38867C48.8027 8.9668 49.0488 8.60352 49.3535 8.29883C49.6699 7.98242 50.0391 7.73633 50.4609 7.56055C50.8828 7.37305 51.3281 7.2793 51.7969 7.2793H60.7266C61.207 7.2793 61.6582 7.37305 62.0801 7.56055C62.502 7.73633 62.8652 7.98242 63.1699 8.29883C63.4863 8.60352 63.7324 8.9668 63.9082 9.38867C64.0957 9.81055 64.1895 10.2617 64.1895 10.7422V18.4062ZM51.7969 10.7422V14.9434H60.7266V10.7422H51.7969ZM73.418 10.7422V26H69.9727V7.2793H73.418V10.584C73.4414 10.127 73.5469 9.69922 73.7344 9.30078C73.9219 8.89062 74.168 8.53906 74.4727 8.24609C74.7891 7.94141 75.1523 7.70703 75.5625 7.54297C75.9727 7.36719 76.4121 7.2793 76.8809 7.2793H80.5547C81.0352 7.2793 81.4805 7.37305 81.8906 7.56055C82.3125 7.73633 82.6816 7.98242 82.998 8.29883C83.3145 8.60352 83.5605 8.9668 83.7363 9.38867C83.9238 9.81055 84.0176 10.2617 84.0176 10.7422V13.9062H80.5547V10.7422H73.418ZM99.4688 0.792969H117.838V4.39648H103.072V11.6035H115.676V15.207H103.072V22.3965H117.838V26H99.4688V0.792969ZM122.883 10.7422C122.883 10.2617 122.971 9.81055 123.146 9.38867C123.334 8.9668 123.58 8.60352 123.885 8.29883C124.201 7.98242 124.57 7.73633 124.992 7.56055C125.414 7.37305 125.859 7.2793 126.328 7.2793H135.979V0.0722656H139.441V26H135.979V22.8359C135.943 23.2695 135.826 23.6797 135.627 24.0664C135.428 24.4531 135.17 24.793 134.854 25.0859C134.549 25.3672 134.197 25.5898 133.799 25.7539C133.4 25.918 132.979 26 132.533 26H126.328C125.859 26 125.414 25.9121 124.992 25.7363C124.57 25.5488 124.201 25.3027 123.885 24.998C123.58 24.6816 123.334 24.3125 123.146 23.8906C122.971 23.4688 122.883 23.0176 122.883 22.5371V10.7422ZM126.328 22.5371H135.979V10.7422H126.328V22.5371ZM148.846 7.2793V26H145.383V7.2793H148.846ZM145.207 0.0722656H149.021V3.67578H145.207V0.0722656ZM153.715 7.2793H158.285V1.51367H161.748V7.2793H167.9V10.7422H161.748V22.5371H167.9V26H161.748C161.279 26 160.834 25.9121 160.412 25.7363C159.99 25.5488 159.621 25.3027 159.305 24.998C158.988 24.6816 158.736 24.3125 158.549 23.8906C158.373 23.4688 158.285 23.0176 158.285 22.5371V10.7422H153.715V7.2793Z" fill="#06CFCE"/>
</svg>
