<svg width="215" height="26" viewBox="0 0 215 26" fill="none" xmlns="http://www.w3.org/2000/svg">
<path d="M4.83789 15.207C4.3457 15.207 3.87695 15.1133 3.43164 14.9258C2.99805 14.7266 2.61719 14.4688 2.28906 14.1523C1.96094 13.8242 1.70312 13.4434 1.51562 13.0098C1.32812 12.5645 1.23438 12.0957 1.23438 11.6035V4.39648C1.23438 3.9043 1.32812 3.44141 1.51562 3.00781C1.70312 2.5625 1.96094 2.18164 2.28906 1.86523C2.61719 1.53711 2.99805 1.2793 3.43164 1.0918C3.87695 0.892578 4.3457 0.792969 4.83789 0.792969H17.0723C17.5645 0.792969 18.0273 0.892578 18.4609 1.0918C18.9062 1.2793 19.293 1.53711 19.6211 1.86523C19.9492 2.18164 20.207 2.5625 20.3945 3.00781C20.582 3.44141 20.6758 3.9043 20.6758 4.39648V7.64844H17.0723V4.39648H4.83789V11.6035H17.0723C17.5645 11.6035 18.0273 11.6973 18.4609 11.8848C18.9062 12.0723 19.293 12.3301 19.6211 12.6582C19.9492 12.9863 20.207 13.373 20.3945 13.8184C20.582 14.252 20.6758 14.7148 20.6758 15.207V22.3965C20.6758 22.8887 20.582 23.3574 20.3945 23.8027C20.207 24.2363 19.9492 24.6172 19.6211 24.9453C19.293 25.2734 18.9062 25.5312 18.4609 25.7188C18.0273 25.9062 17.5645 26 17.0723 26H4.48633C3.99414 26 3.52539 25.9062 3.08008 25.7188C2.64648 25.5312 2.26562 25.2734 1.9375 24.9453C1.60938 24.6172 1.35156 24.2363 1.16406 23.8027C0.976562 23.3574 0.882812 22.8887 0.882812 22.3965V19.1621H4.48633V22.3965H17.0723V15.207H4.83789ZM43.3867 26H39.9238V10.7422H30.2734V26H26.8281V0.0722656H30.2734V10.584C30.2969 10.127 30.4023 9.69922 30.5898 9.30078C30.7773 8.89062 31.0234 8.53906 31.3281 8.24609C31.6445 7.94141 32.0078 7.70703 32.418 7.54297C32.8281 7.36719 33.2676 7.2793 33.7363 7.2793H39.9238C40.4043 7.2793 40.8555 7.37305 41.2773 7.56055C41.6992 7.73633 42.0625 7.98242 42.3672 8.29883C42.6836 8.60352 42.9297 8.9668 43.1055 9.38867C43.293 9.81055 43.3867 10.2617 43.3867 10.7422V26ZM65.3418 22.5371C65.3418 23.0176 65.248 23.4688 65.0605 23.8906C64.8848 24.3125 64.6387 24.6816 64.3223 24.998C64.0176 25.3027 63.6543 25.5488 63.2324 25.7363C62.8223 25.9121 62.377 26 61.8965 26H52.5977C52.1289 26 51.6836 25.9121 51.2617 25.7363C50.8398 25.5488 50.4707 25.3027 50.1543 24.998C49.8496 24.6816 49.6035 24.3125 49.416 23.8906C49.2402 23.4688 49.1523 23.0176 49.1523 22.5371V10.7422C49.1523 10.2617 49.2402 9.81055 49.416 9.38867C49.6035 8.9668 49.8496 8.60352 50.1543 8.29883C50.4707 7.98242 50.8398 7.73633 51.2617 7.56055C51.6836 7.37305 52.1289 7.2793 52.5977 7.2793H61.8965C62.377 7.2793 62.8223 7.37305 63.2324 7.56055C63.6543 7.73633 64.0176 7.98242 64.3223 8.29883C64.6387 8.60352 64.8848 8.9668 65.0605 9.38867C65.248 9.81055 65.3418 10.2617 65.3418 10.7422V22.5371ZM52.5977 10.7422V22.5371H61.8965V10.7422H52.5977ZM75.0098 26L68.9629 7.2793H72.4609L76.8906 21.3945L81.0215 7.2793H84.5547L88.6855 21.3945L93.1152 7.2793H96.6133L90.5664 26H86.9629L82.7793 12.2539L78.6133 26H75.0098ZM111.379 0.792969H114.982V22.3965H129.379V0.792969H132.982V22.3965C132.982 22.8887 132.889 23.3574 132.701 23.8027C132.514 24.2363 132.256 24.6172 131.928 24.9453C131.6 25.2734 131.213 25.5312 130.768 25.7188C130.334 25.9062 129.871 26 129.379 26H114.982C114.49 26 114.021 25.9062 113.576 25.7188C113.143 25.5312 112.762 25.2734 112.434 24.9453C112.105 24.6172 111.848 24.2363 111.66 23.8027C111.473 23.3574 111.379 22.8887 111.379 22.3965V0.792969ZM150.42 22.5371V18.1953H142.211C141.73 18.1953 141.279 18.1074 140.857 17.9316C140.436 17.7441 140.066 17.498 139.75 17.1934C139.445 16.877 139.199 16.5078 139.012 16.0859C138.836 15.6641 138.748 15.2129 138.748 14.7324V10.7422C138.748 10.2617 138.836 9.81055 139.012 9.38867C139.199 8.9668 139.445 8.60352 139.75 8.29883C140.066 7.98242 140.436 7.73633 140.857 7.56055C141.279 7.37305 141.73 7.2793 142.211 7.2793H153.162V10.7422H142.211V14.7324H150.42C150.9 14.7324 151.346 14.8262 151.756 15.0137C152.178 15.1895 152.547 15.4355 152.863 15.752C153.18 16.0566 153.426 16.4199 153.602 16.8418C153.789 17.2637 153.883 17.7148 153.883 18.1953V22.5371C153.883 23.0176 153.789 23.4688 153.602 23.8906C153.426 24.3125 153.18 24.6816 152.863 24.998C152.547 25.3027 152.178 25.5488 151.756 25.7363C151.346 25.9121 150.9 26 150.42 26H138.748V22.5371H150.42ZM175.135 18.4062H162.742V22.5371H175.135V26H162.742C162.273 26 161.828 25.9121 161.406 25.7363C160.984 25.5488 160.615 25.3027 160.299 24.998C159.994 24.6816 159.748 24.3125 159.561 23.8906C159.385 23.4688 159.297 23.0176 159.297 22.5371V10.7422C159.297 10.2617 159.385 9.81055 159.561 9.38867C159.748 8.9668 159.994 8.60352 160.299 8.29883C160.615 7.98242 160.984 7.73633 161.406 7.56055C161.828 7.37305 162.273 7.2793 162.742 7.2793H171.672C172.152 7.2793 172.604 7.37305 173.025 7.56055C173.447 7.73633 173.811 7.98242 174.115 8.29883C174.432 8.60352 174.678 8.9668 174.854 9.38867C175.041 9.81055 175.135 10.2617 175.135 10.7422V18.4062ZM162.742 10.7422V14.9434H171.672V10.7422H162.742ZM184.363 10.7422V26H180.918V7.2793H184.363V10.584C184.387 10.127 184.492 9.69922 184.68 9.30078C184.867 8.89062 185.113 8.53906 185.418 8.24609C185.734 7.94141 186.098 7.70703 186.508 7.54297C186.918 7.36719 187.357 7.2793 187.826 7.2793H191.5C191.98 7.2793 192.426 7.37305 192.836 7.56055C193.258 7.73633 193.627 7.98242 193.943 8.29883C194.26 8.60352 194.506 8.9668 194.682 9.38867C194.869 9.81055 194.963 10.2617 194.963 10.7422V13.9062H191.5V10.7422H184.363ZM210.572 22.5371V18.1953H202.363C201.883 18.1953 201.432 18.1074 201.01 17.9316C200.588 17.7441 200.219 17.498 199.902 17.1934C199.598 16.877 199.352 16.5078 199.164 16.0859C198.988 15.6641 198.9 15.2129 198.9 14.7324V10.7422C198.9 10.2617 198.988 9.81055 199.164 9.38867C199.352 8.9668 199.598 8.60352 199.902 8.29883C200.219 7.98242 200.588 7.73633 201.01 7.56055C201.432 7.37305 201.883 7.2793 202.363 7.2793H213.314V10.7422H202.363V14.7324H210.572C211.053 14.7324 211.498 14.8262 211.908 15.0137C212.33 15.1895 212.699 15.4355 213.016 15.752C213.332 16.0566 213.578 16.4199 213.754 16.8418C213.941 17.2637 214.035 17.7148 214.035 18.1953V22.5371C214.035 23.0176 213.941 23.4688 213.754 23.8906C213.578 24.3125 213.332 24.6816 213.016 24.998C212.699 25.3027 212.33 25.5488 211.908 25.7363C211.498 25.9121 211.053 26 210.572 26H198.9V22.5371H210.572Z" fill="#06CFCE"/>
</svg>
