<svg width="124" height="26" viewBox="0 0 124 26" fill="none" xmlns="http://www.w3.org/2000/svg">
<path d="M4.83789 15.207C4.3457 15.207 3.87695 15.1133 3.43164 14.9258C2.99805 14.7266 2.61719 14.4688 2.28906 14.1523C1.96094 13.8242 1.70312 13.4434 1.51562 13.0098C1.32812 12.5645 1.23438 12.0957 1.23438 11.6035V4.39648C1.23438 3.9043 1.32812 3.44141 1.51562 3.00781C1.70312 2.5625 1.96094 2.18164 2.28906 1.86523C2.61719 1.53711 2.99805 1.2793 3.43164 1.0918C3.87695 0.892578 4.3457 0.792969 4.83789 0.792969H17.0723C17.5645 0.792969 18.0273 0.892578 18.4609 1.0918C18.9062 1.2793 19.293 1.53711 19.6211 1.86523C19.9492 2.18164 20.207 2.5625 20.3945 3.00781C20.582 3.44141 20.6758 3.9043 20.6758 4.39648V7.64844H17.0723V4.39648H4.83789V11.6035H17.0723C17.5645 11.6035 18.0273 11.6973 18.4609 11.8848C18.9062 12.0723 19.293 12.3301 19.6211 12.6582C19.9492 12.9863 20.207 13.373 20.3945 13.8184C20.582 14.252 20.6758 14.7148 20.6758 15.207V22.3965C20.6758 22.8887 20.582 23.3574 20.3945 23.8027C20.207 24.2363 19.9492 24.6172 19.6211 24.9453C19.293 25.2734 18.9062 25.5312 18.4609 25.7188C18.0273 25.9062 17.5645 26 17.0723 26H4.48633C3.99414 26 3.52539 25.9062 3.08008 25.7188C2.64648 25.5312 2.26562 25.2734 1.9375 24.9453C1.60938 24.6172 1.35156 24.2363 1.16406 23.8027C0.976562 23.3574 0.882812 22.8887 0.882812 22.3965V19.1621H4.48633V22.3965H17.0723V15.207H4.83789ZM25.7383 7.2793H30.3086V1.51367H33.7715V7.2793H39.9238V10.7422H33.7715V22.5371H39.9238V26H33.7715C33.3027 26 32.8574 25.9121 32.4355 25.7363C32.0137 25.5488 31.6445 25.3027 31.3281 24.998C31.0117 24.6816 30.7598 24.3125 30.5723 23.8906C30.3965 23.4688 30.3086 23.0176 30.3086 22.5371V10.7422H25.7383V7.2793ZM45.707 17.8262C45.707 17.3457 45.7949 16.9004 45.9707 16.4902C46.1582 16.0684 46.4043 15.6992 46.709 15.3828C47.0254 15.0664 47.3945 14.8203 47.8164 14.6445C48.2383 14.457 48.6836 14.3633 49.1523 14.3633H58.082V10.7422H46.7793V7.2793H58.082C58.5625 7.2793 59.0137 7.37305 59.4355 7.56055C59.8574 7.73633 60.2207 7.98242 60.5254 8.29883C60.8418 8.60352 61.0879 8.9668 61.2637 9.38867C61.4512 9.81055 61.5449 10.2617 61.5449 10.7422V26H58.082V22.8359C58.0469 23.2695 57.9297 23.6797 57.7305 24.0664C57.5312 24.4531 57.2734 24.793 56.957 25.0859C56.6523 25.3672 56.3008 25.5898 55.9023 25.7539C55.5039 25.918 55.082 26 54.6367 26H49.1523C48.6836 26 48.2383 25.9121 47.8164 25.7363C47.3945 25.5488 47.0254 25.3027 46.709 24.998C46.4043 24.6816 46.1582 24.3125 45.9707 23.8906C45.7949 23.4688 45.707 23.0176 45.707 22.5371V17.8262ZM49.1523 22.5371H58.082V17.8262H49.1523V22.5371ZM66.2383 7.2793H70.8086V1.51367H74.2715V7.2793H80.4238V10.7422H74.2715V22.5371H80.4238V26H74.2715C73.8027 26 73.3574 25.9121 72.9355 25.7363C72.5137 25.5488 72.1445 25.3027 71.8281 24.998C71.5117 24.6816 71.2598 24.3125 71.0723 23.8906C70.8965 23.4688 70.8086 23.0176 70.8086 22.5371V10.7422H66.2383V7.2793ZM86.207 7.2793H89.6523V22.5371H99.3027V7.2793H102.766V26H99.3027V22.8359C99.2676 23.2695 99.1504 23.6797 98.9512 24.0664C98.752 24.4531 98.4941 24.793 98.1777 25.0859C97.873 25.3672 97.5215 25.5898 97.123 25.7539C96.7246 25.918 96.3027 26 95.8574 26H89.6523C89.1836 26 88.7383 25.9121 88.3164 25.7363C87.8945 25.5488 87.5254 25.3027 87.209 24.998C86.9043 24.6816 86.6582 24.3125 86.4707 23.8906C86.2949 23.4688 86.207 23.0176 86.207 22.5371V7.2793ZM119.834 22.5371V18.1953H111.625C111.145 18.1953 110.693 18.1074 110.271 17.9316C109.85 17.7441 109.48 17.498 109.164 17.1934C108.859 16.877 108.613 16.5078 108.426 16.0859C108.25 15.6641 108.162 15.2129 108.162 14.7324V10.7422C108.162 10.2617 108.25 9.81055 108.426 9.38867C108.613 8.9668 108.859 8.60352 109.164 8.29883C109.48 7.98242 109.85 7.73633 110.271 7.56055C110.693 7.37305 111.145 7.2793 111.625 7.2793H122.576V10.7422H111.625V14.7324H119.834C120.314 14.7324 120.76 14.8262 121.17 15.0137C121.592 15.1895 121.961 15.4355 122.277 15.752C122.594 16.0566 122.84 16.4199 123.016 16.8418C123.203 17.2637 123.297 17.7148 123.297 18.1953V22.5371C123.297 23.0176 123.203 23.4688 123.016 23.8906C122.84 24.3125 122.594 24.6816 122.277 24.998C121.961 25.3027 121.592 25.5488 121.17 25.7363C120.76 25.9121 120.314 26 119.834 26H108.162V22.5371H119.834Z" fill="#06CFCE"/>
</svg>
