<svg width="234" height="61" viewBox="0 0 234 61" fill="none" xmlns="http://www.w3.org/2000/svg">
<path d="M4.83789 15.207C4.3457 15.207 3.87695 15.1133 3.43164 14.9258C2.99805 14.7266 2.61719 14.4688 2.28906 14.1523C1.96094 13.8242 1.70312 13.4434 1.51562 13.0098C1.32812 12.5645 1.23438 12.0957 1.23438 11.6035V4.39648C1.23438 3.9043 1.32812 3.44141 1.51562 3.00781C1.70312 2.5625 1.96094 2.18164 2.28906 1.86523C2.61719 1.53711 2.99805 1.2793 3.43164 1.0918C3.87695 0.892578 4.3457 0.792969 4.83789 0.792969H17.0723C17.5645 0.792969 18.0273 0.892578 18.4609 1.0918C18.9062 1.2793 19.293 1.53711 19.6211 1.86523C19.9492 2.18164 20.207 2.5625 20.3945 3.00781C20.582 3.44141 20.6758 3.9043 20.6758 4.39648V7.64844H17.0723V4.39648H4.83789V11.6035H17.0723C17.5645 11.6035 18.0273 11.6973 18.4609 11.8848C18.9062 12.0723 19.293 12.3301 19.6211 12.6582C19.9492 12.9863 20.207 13.373 20.3945 13.8184C20.582 14.252 20.6758 14.7148 20.6758 15.207V22.3965C20.6758 22.8887 20.582 23.3574 20.3945 23.8027C20.207 24.2363 19.9492 24.6172 19.6211 24.9453C19.293 25.2734 18.9062 25.5312 18.4609 25.7188C18.0273 25.9062 17.5645 26 17.0723 26H4.48633C3.99414 26 3.52539 25.9062 3.08008 25.7188C2.64648 25.5312 2.26562 25.2734 1.9375 24.9453C1.60938 24.6172 1.35156 24.2363 1.16406 23.8027C0.976562 23.3574 0.882812 22.8887 0.882812 22.3965V19.1621H4.48633V22.3965H17.0723V15.207H4.83789ZM26.8281 7.2793H30.2734V22.5371H39.9238V7.2793H43.3867V26H39.9238V22.8359C39.8887 23.2695 39.7715 23.6797 39.5723 24.0664C39.373 24.4531 39.1152 24.793 38.7988 25.0859C38.4941 25.3672 38.1426 25.5898 37.7441 25.7539C37.3457 25.918 36.9238 26 36.4785 26H30.2734C29.8047 26 29.3594 25.9121 28.9375 25.7363C28.5156 25.5488 28.1465 25.3027 27.8301 24.998C27.5254 24.6816 27.2793 24.3125 27.0918 23.8906C26.916 23.4688 26.8281 23.0176 26.8281 22.5371V7.2793ZM65.7109 22.5371C65.7109 23.0176 65.6172 23.4688 65.4297 23.8906C65.2539 24.3125 65.0078 24.6816 64.6914 24.998C64.3867 25.3027 64.0234 25.5488 63.6016 25.7363C63.1797 25.9121 62.7285 26 62.248 26H52.5977V33.5586H49.1523V7.2793H52.5977V10.4434C52.6328 9.99805 52.75 9.58789 52.9492 9.21289C53.1484 8.82617 53.4004 8.49219 53.7051 8.21094C54.0098 7.91797 54.3613 7.68945 54.7598 7.52539C55.1699 7.36133 55.6035 7.2793 56.0605 7.2793H62.248C62.7285 7.2793 63.1797 7.37305 63.6016 7.56055C64.0234 7.73633 64.3867 7.98242 64.6914 8.29883C65.0078 8.60352 65.2539 8.9668 65.4297 9.38867C65.6172 9.81055 65.7109 10.2617 65.7109 10.7422V22.5371ZM62.248 22.5371V10.7422H52.5977V22.5371H62.248ZM87.3145 18.4062H74.9219V22.5371H87.3145V26H74.9219C74.4531 26 74.0078 25.9121 73.5859 25.7363C73.1641 25.5488 72.7949 25.3027 72.4785 24.998C72.1738 24.6816 71.9277 24.3125 71.7402 23.8906C71.5645 23.4688 71.4766 23.0176 71.4766 22.5371V10.7422C71.4766 10.2617 71.5645 9.81055 71.7402 9.38867C71.9277 8.9668 72.1738 8.60352 72.4785 8.29883C72.7949 7.98242 73.1641 7.73633 73.5859 7.56055C74.0078 7.37305 74.4531 7.2793 74.9219 7.2793H83.8516C84.332 7.2793 84.7832 7.37305 85.2051 7.56055C85.627 7.73633 85.9902 7.98242 86.2949 8.29883C86.6113 8.60352 86.8574 8.9668 87.0332 9.38867C87.2207 9.81055 87.3145 10.2617 87.3145 10.7422V18.4062ZM74.9219 10.7422V14.9434H83.8516V10.7422H74.9219ZM96.543 10.7422V26H93.0977V7.2793H96.543V10.584C96.5664 10.127 96.6719 9.69922 96.8594 9.30078C97.0469 8.89062 97.293 8.53906 97.5977 8.24609C97.9141 7.94141 98.2773 7.70703 98.6875 7.54297C99.0977 7.36719 99.5371 7.2793 100.006 7.2793H103.68C104.16 7.2793 104.605 7.37305 105.016 7.56055C105.438 7.73633 105.807 7.98242 106.123 8.29883C106.439 8.60352 106.686 8.9668 106.861 9.38867C107.049 9.81055 107.143 10.2617 107.143 10.7422V13.9062H103.68V10.7422H96.543ZM135.602 26L126.197 7.52539V26H122.594V0.792969H126.531L136.129 19.7773L145.744 0.792969H149.664V26H146.078V7.52539L136.674 26H135.602ZM155.816 17.8262C155.816 17.3457 155.904 16.9004 156.08 16.4902C156.268 16.0684 156.514 15.6992 156.818 15.3828C157.135 15.0664 157.504 14.8203 157.926 14.6445C158.348 14.457 158.793 14.3633 159.262 14.3633H168.191V10.7422H156.889V7.2793H168.191C168.672 7.2793 169.123 7.37305 169.545 7.56055C169.967 7.73633 170.33 7.98242 170.635 8.29883C170.951 8.60352 171.197 8.9668 171.373 9.38867C171.561 9.81055 171.654 10.2617 171.654 10.7422V26H168.191V22.8359C168.156 23.2695 168.039 23.6797 167.84 24.0664C167.641 24.4531 167.383 24.793 167.066 25.0859C166.762 25.3672 166.41 25.5898 166.012 25.7539C165.613 25.918 165.191 26 164.746 26H159.262C158.793 26 158.348 25.9121 157.926 25.7363C157.504 25.5488 157.135 25.3027 156.818 24.998C156.514 24.6816 156.268 24.3125 156.08 23.8906C155.904 23.4688 155.816 23.0176 155.816 22.5371V17.8262ZM159.262 22.5371H168.191V17.8262H159.262V22.5371ZM180.883 10.7422V26H177.438V7.2793H180.883V10.584C180.906 10.127 181.012 9.69922 181.199 9.30078C181.387 8.89062 181.633 8.53906 181.938 8.24609C182.254 7.94141 182.617 7.70703 183.027 7.54297C183.438 7.36719 183.877 7.2793 184.346 7.2793H188.02C188.5 7.2793 188.945 7.37305 189.355 7.56055C189.777 7.73633 190.146 7.98242 190.463 8.29883C190.779 8.60352 191.025 8.9668 191.201 9.38867C191.389 9.81055 191.482 10.2617 191.482 10.7422V13.9062H188.02V10.7422H180.883ZM199.428 7.2793V26H195.965V7.2793H199.428ZM195.789 0.0722656H199.604V3.67578H195.789V0.0722656ZM221.576 22.5371C221.576 23.0176 221.482 23.4688 221.295 23.8906C221.119 24.3125 220.873 24.6816 220.557 24.998C220.252 25.3027 219.889 25.5488 219.467 25.7363C219.057 25.9121 218.611 26 218.131 26H208.832C208.363 26 207.918 25.9121 207.496 25.7363C207.074 25.5488 206.705 25.3027 206.389 24.998C206.084 24.6816 205.838 24.3125 205.65 23.8906C205.475 23.4688 205.387 23.0176 205.387 22.5371V10.7422C205.387 10.2617 205.475 9.81055 205.65 9.38867C205.838 8.9668 206.084 8.60352 206.389 8.29883C206.705 7.98242 207.074 7.73633 207.496 7.56055C207.918 7.37305 208.363 7.2793 208.832 7.2793H218.131C218.611 7.2793 219.057 7.37305 219.467 7.56055C219.889 7.73633 220.252 7.98242 220.557 8.29883C220.873 8.60352 221.119 8.9668 221.295 9.38867C221.482 9.81055 221.576 10.2617 221.576 10.7422V22.5371ZM208.832 10.7422V22.5371H218.131V10.7422H208.832ZM17.6523 47.8516C18.1797 48.0156 18.6602 48.25 19.0938 48.5547C19.5273 48.8594 19.8965 49.252 20.2012 49.7324C20.5059 50.2012 20.7402 50.7578 20.9043 51.4023C21.0684 52.0469 21.1504 52.7852 21.1504 53.6172V54.8828C21.1504 58.9609 19.1113 61 15.0332 61H1.23438V35.793H14.3125C18.3906 35.793 20.4297 37.8379 20.4297 41.9277V42.3848C20.4297 43.8027 20.2012 44.9629 19.7441 45.8652C19.2988 46.7559 18.6016 47.418 17.6523 47.8516ZM4.76758 50.0137V57.4668H14.9277C15.877 57.4668 16.5625 57.2441 16.9844 56.7988C17.4062 56.3535 17.6172 55.6562 17.6172 54.707V52.7559C17.6172 51.7949 17.4062 51.0977 16.9844 50.6641C16.5625 50.2305 15.877 50.0137 14.9277 50.0137H4.76758ZM4.76758 39.3262V46.498H14.4531C15.3203 46.4629 15.9414 46.2285 16.3164 45.7949C16.7031 45.3496 16.8965 44.6699 16.8965 43.7559V42.1035C16.8965 41.1426 16.6855 40.4395 16.2637 39.9941C15.8418 39.5488 15.1562 39.3262 14.207 39.3262H4.76758ZM29.6406 45.7422V61H26.1953V42.2793H29.6406V45.584C29.6641 45.127 29.7695 44.6992 29.957 44.3008C30.1445 43.8906 30.3906 43.5391 30.6953 43.2461C31.0117 42.9414 31.375 42.707 31.7852 42.543C32.1953 42.3672 32.6348 42.2793 33.1035 42.2793H36.7773C37.2578 42.2793 37.7031 42.373 38.1133 42.5605C38.5352 42.7363 38.9043 42.9824 39.2207 43.2988C39.5371 43.6035 39.7832 43.9668 39.959 44.3887C40.1465 44.8105 40.2402 45.2617 40.2402 45.7422V48.9062H36.7773V45.7422H29.6406ZM60.7363 57.5371C60.7363 58.0176 60.6426 58.4688 60.4551 58.8906C60.2793 59.3125 60.0332 59.6816 59.7168 59.998C59.4121 60.3027 59.0488 60.5488 58.627 60.7363C58.2168 60.9121 57.7715 61 57.291 61H47.9922C47.5234 61 47.0781 60.9121 46.6562 60.7363C46.2344 60.5488 45.8652 60.3027 45.5488 59.998C45.2441 59.6816 44.998 59.3125 44.8105 58.8906C44.6348 58.4688 44.5469 58.0176 44.5469 57.5371V45.7422C44.5469 45.2617 44.6348 44.8105 44.8105 44.3887C44.998 43.9668 45.2441 43.6035 45.5488 43.2988C45.8652 42.9824 46.2344 42.7363 46.6562 42.5605C47.0781 42.373 47.5234 42.2793 47.9922 42.2793H57.291C57.7715 42.2793 58.2168 42.373 58.627 42.5605C59.0488 42.7363 59.4121 42.9824 59.7168 43.2988C60.0332 43.6035 60.2793 43.9668 60.4551 44.3887C60.6426 44.8105 60.7363 45.2617 60.7363 45.7422V57.5371ZM47.9922 45.7422V57.5371H57.291V45.7422H47.9922ZM77.8223 57.5371V53.1953H69.6133C69.1328 53.1953 68.6816 53.1074 68.2598 52.9316C67.8379 52.7441 67.4688 52.498 67.1523 52.1934C66.8477 51.877 66.6016 51.5078 66.4141 51.0859C66.2383 50.6641 66.1504 50.2129 66.1504 49.7324V45.7422C66.1504 45.2617 66.2383 44.8105 66.4141 44.3887C66.6016 43.9668 66.8477 43.6035 67.1523 43.2988C67.4688 42.9824 67.8379 42.7363 68.2598 42.5605C68.6816 42.373 69.1328 42.2793 69.6133 42.2793H80.5645V45.7422H69.6133V49.7324H77.8223C78.3027 49.7324 78.748 49.8262 79.1582 50.0137C79.5801 50.1895 79.9492 50.4355 80.2656 50.752C80.582 51.0566 80.8281 51.4199 81.0039 51.8418C81.1914 52.2637 81.2852 52.7148 81.2852 53.1953V57.5371C81.2852 58.0176 81.1914 58.4688 81.0039 58.8906C80.8281 59.3125 80.582 59.6816 80.2656 59.998C79.9492 60.3027 79.5801 60.5488 79.1582 60.7363C78.748 60.9121 78.3027 61 77.8223 61H66.1504V57.5371H77.8223ZM102.889 61L95.6816 35.793H99.2852L104.875 55.8496L110.447 35.793H114.051L119.623 55.8496L125.213 35.793H128.816L121.609 61H117.654L112.258 42.1035L106.844 61H102.889ZM147.889 57.5371C147.889 58.0176 147.795 58.4688 147.607 58.8906C147.432 59.3125 147.186 59.6816 146.869 59.998C146.564 60.3027 146.201 60.5488 145.779 60.7363C145.369 60.9121 144.924 61 144.443 61H135.145C134.676 61 134.23 60.9121 133.809 60.7363C133.387 60.5488 133.018 60.3027 132.701 59.998C132.396 59.6816 132.15 59.3125 131.963 58.8906C131.787 58.4688 131.699 58.0176 131.699 57.5371V45.7422C131.699 45.2617 131.787 44.8105 131.963 44.3887C132.15 43.9668 132.396 43.6035 132.701 43.2988C133.018 42.9824 133.387 42.7363 133.809 42.5605C134.23 42.373 134.676 42.2793 135.145 42.2793H144.443C144.924 42.2793 145.369 42.373 145.779 42.5605C146.201 42.7363 146.564 42.9824 146.869 43.2988C147.186 43.6035 147.432 43.9668 147.607 44.3887C147.795 44.8105 147.889 45.2617 147.889 45.7422V57.5371ZM135.145 45.7422V57.5371H144.443V45.7422H135.145ZM170.23 61H166.768V45.7422H157.117V61H153.672V42.2793H157.117V45.584C157.141 45.127 157.246 44.6992 157.434 44.3008C157.621 43.8906 157.867 43.5391 158.172 43.2461C158.488 42.9414 158.852 42.707 159.262 42.543C159.672 42.3672 160.111 42.2793 160.58 42.2793H166.768C167.248 42.2793 167.699 42.373 168.121 42.5605C168.543 42.7363 168.906 42.9824 169.211 43.2988C169.527 43.6035 169.773 43.9668 169.949 44.3887C170.137 44.8105 170.23 45.2617 170.23 45.7422V61ZM175.996 45.7422C175.996 45.2617 176.084 44.8105 176.26 44.3887C176.447 43.9668 176.693 43.6035 176.998 43.2988C177.314 42.9824 177.684 42.7363 178.105 42.5605C178.527 42.373 178.973 42.2793 179.441 42.2793H189.092V35.0723H192.555V61H189.092V57.8359C189.057 58.2695 188.939 58.6797 188.74 59.0664C188.541 59.4531 188.283 59.793 187.967 60.0859C187.662 60.3672 187.311 60.5898 186.912 60.7539C186.514 60.918 186.092 61 185.646 61H179.441C178.973 61 178.527 60.9121 178.105 60.7363C177.684 60.5488 177.314 60.3027 176.998 59.998C176.693 59.6816 176.447 59.3125 176.26 58.8906C176.084 58.4688 175.996 58.0176 175.996 57.5371V45.7422ZM179.441 57.5371H189.092V45.7422H179.441V57.5371ZM214.158 53.4062H201.766V57.5371H214.158V61H201.766C201.297 61 200.852 60.9121 200.43 60.7363C200.008 60.5488 199.639 60.3027 199.322 59.998C199.018 59.6816 198.771 59.3125 198.584 58.8906C198.408 58.4688 198.32 58.0176 198.32 57.5371V45.7422C198.32 45.2617 198.408 44.8105 198.584 44.3887C198.771 43.9668 199.018 43.6035 199.322 43.2988C199.639 42.9824 200.008 42.7363 200.43 42.5605C200.852 42.373 201.297 42.2793 201.766 42.2793H210.695C211.176 42.2793 211.627 42.373 212.049 42.5605C212.471 42.7363 212.834 42.9824 213.139 43.2988C213.455 43.6035 213.701 43.9668 213.877 44.3887C214.064 44.8105 214.158 45.2617 214.158 45.7422V53.4062ZM201.766 45.7422V49.9434H210.695V45.7422H201.766ZM223.387 45.7422V61H219.941V42.2793H223.387V45.584C223.41 45.127 223.516 44.6992 223.703 44.3008C223.891 43.8906 224.137 43.5391 224.441 43.2461C224.758 42.9414 225.121 42.707 225.531 42.543C225.941 42.3672 226.381 42.2793 226.85 42.2793H230.523C231.004 42.2793 231.449 42.373 231.859 42.5605C232.281 42.7363 232.65 42.9824 232.967 43.2988C233.283 43.6035 233.529 43.9668 233.705 44.3887C233.893 44.8105 233.986 45.2617 233.986 45.7422V48.9062H230.523V45.7422H223.387Z" fill="#06CFCE"/>
</svg>
