<svg width="257" height="34" viewBox="0 0 257 34" fill="none" xmlns="http://www.w3.org/2000/svg">
<path d="M13.2422 26L3.83789 7.52539V26H0.234375V0.792969H4.17188L13.7695 19.7773L23.3848 0.792969H27.3047V26H23.7188V7.52539L14.3145 26H13.2422ZM34.7227 33.5586L38.6426 24.3125L31.2949 7.2793H34.9336L40.4004 20.1641L45.8672 7.2793H49.5059L38.168 33.5586H34.7227ZM77.0684 22.3965C78.7441 22.3965 80.0332 21.9453 80.9355 21.043C81.8379 20.1406 82.2891 18.8516 82.2891 17.1758V9.61719C82.2891 8.79688 82.1719 8.06445 81.9375 7.41992C81.7031 6.77539 81.3574 6.23047 80.9004 5.78516C80.4551 5.32812 79.9102 4.98242 79.2656 4.74805C78.6211 4.51367 77.8887 4.39648 77.0684 4.39648H67.8574V22.3965H77.0684ZM64.2539 26V0.792969H77.0684C78.416 0.792969 79.6289 1.00391 80.707 1.42578C81.7969 1.83594 82.7227 2.42773 83.4844 3.20117C84.2578 3.96289 84.8496 4.88867 85.2598 5.97852C85.6816 7.06836 85.8926 8.28125 85.8926 9.61719V17.1758C85.8926 18.5117 85.6816 19.7246 85.2598 20.8145C84.8496 21.9043 84.2578 22.8359 83.4844 23.6094C82.7227 24.3711 81.7969 24.9629 80.707 25.3848C79.6289 25.7949 78.416 26 77.0684 26H64.2539ZM91.3242 17.8262C91.3242 17.3457 91.4121 16.9004 91.5879 16.4902C91.7754 16.0684 92.0215 15.6992 92.3262 15.3828C92.6426 15.0664 93.0117 14.8203 93.4336 14.6445C93.8555 14.457 94.3008 14.3633 94.7695 14.3633H103.699V10.7422H92.3965V7.2793H103.699C104.18 7.2793 104.631 7.37305 105.053 7.56055C105.475 7.73633 105.838 7.98242 106.143 8.29883C106.459 8.60352 106.705 8.9668 106.881 9.38867C107.068 9.81055 107.162 10.2617 107.162 10.7422V26H103.699V22.8359C103.664 23.2695 103.547 23.6797 103.348 24.0664C103.148 24.4531 102.891 24.793 102.574 25.0859C102.27 25.3672 101.918 25.5898 101.52 25.7539C101.121 25.918 100.699 26 100.254 26H94.7695C94.3008 26 93.8555 25.9121 93.4336 25.7363C93.0117 25.5488 92.6426 25.3027 92.3262 24.998C92.0215 24.6816 91.7754 24.3125 91.5879 23.8906C91.4121 23.4688 91.3242 23.0176 91.3242 22.5371V17.8262ZM94.7695 22.5371H103.699V17.8262H94.7695V22.5371ZM124.248 22.5371V18.1953H116.039C115.559 18.1953 115.107 18.1074 114.686 17.9316C114.264 17.7441 113.895 17.498 113.578 17.1934C113.273 16.877 113.027 16.5078 112.84 16.0859C112.664 15.6641 112.576 15.2129 112.576 14.7324V10.7422C112.576 10.2617 112.664 9.81055 112.84 9.38867C113.027 8.9668 113.273 8.60352 113.578 8.29883C113.895 7.98242 114.264 7.73633 114.686 7.56055C115.107 7.37305 115.559 7.2793 116.039 7.2793H126.99V10.7422H116.039V14.7324H124.248C124.729 14.7324 125.174 14.8262 125.584 15.0137C126.006 15.1895 126.375 15.4355 126.691 15.752C127.008 16.0566 127.254 16.4199 127.43 16.8418C127.617 17.2637 127.711 17.7148 127.711 18.1953V22.5371C127.711 23.0176 127.617 23.4688 127.43 23.8906C127.254 24.3125 127.008 24.6816 126.691 24.998C126.375 25.3027 126.006 25.5488 125.584 25.7363C125.174 25.9121 124.729 26 124.248 26H112.576V22.5371H124.248ZM149.684 26H146.221V10.7422H136.57V26H133.125V0.0722656H136.57V10.584C136.594 10.127 136.699 9.69922 136.887 9.30078C137.074 8.89062 137.32 8.53906 137.625 8.24609C137.941 7.94141 138.305 7.70703 138.715 7.54297C139.125 7.36719 139.564 7.2793 140.033 7.2793H146.221C146.701 7.2793 147.152 7.37305 147.574 7.56055C147.996 7.73633 148.359 7.98242 148.664 8.29883C148.98 8.60352 149.227 8.9668 149.402 9.38867C149.59 9.81055 149.684 10.2617 149.684 10.7422V26ZM172.008 22.5371C172.008 23.0176 171.914 23.4688 171.727 23.8906C171.551 24.3125 171.305 24.6816 170.988 24.998C170.684 25.3027 170.32 25.5488 169.898 25.7363C169.477 25.9121 169.025 26 168.545 26H158.895C158.426 26 157.98 25.9121 157.559 25.7363C157.137 25.5488 156.768 25.3027 156.451 24.998C156.146 24.6816 155.9 24.3125 155.713 23.8906C155.537 23.4688 155.449 23.0176 155.449 22.5371V0.0722656H158.895V10.584C158.918 10.127 159.023 9.69922 159.211 9.30078C159.398 8.89062 159.645 8.53906 159.949 8.24609C160.266 7.94141 160.629 7.70703 161.039 7.54297C161.449 7.36719 161.889 7.2793 162.357 7.2793H168.545C169.025 7.2793 169.477 7.37305 169.898 7.56055C170.32 7.73633 170.684 7.98242 170.988 8.29883C171.305 8.60352 171.551 8.9668 171.727 9.38867C171.914 9.81055 172.008 10.2617 172.008 10.7422V22.5371ZM158.895 10.7422V22.5371H168.545V10.7422H158.895ZM193.963 22.5371C193.963 23.0176 193.869 23.4688 193.682 23.8906C193.506 24.3125 193.26 24.6816 192.943 24.998C192.639 25.3027 192.275 25.5488 191.854 25.7363C191.443 25.9121 190.998 26 190.518 26H181.219C180.75 26 180.305 25.9121 179.883 25.7363C179.461 25.5488 179.092 25.3027 178.775 24.998C178.471 24.6816 178.225 24.3125 178.037 23.8906C177.861 23.4688 177.773 23.0176 177.773 22.5371V10.7422C177.773 10.2617 177.861 9.81055 178.037 9.38867C178.225 8.9668 178.471 8.60352 178.775 8.29883C179.092 7.98242 179.461 7.73633 179.883 7.56055C180.305 7.37305 180.75 7.2793 181.219 7.2793H190.518C190.998 7.2793 191.443 7.37305 191.854 7.56055C192.275 7.73633 192.639 7.98242 192.943 8.29883C193.26 8.60352 193.506 8.9668 193.682 9.38867C193.869 9.81055 193.963 10.2617 193.963 10.7422V22.5371ZM181.219 10.7422V22.5371H190.518V10.7422H181.219ZM199.746 17.8262C199.746 17.3457 199.834 16.9004 200.01 16.4902C200.197 16.0684 200.443 15.6992 200.748 15.3828C201.064 15.0664 201.434 14.8203 201.855 14.6445C202.277 14.457 202.723 14.3633 203.191 14.3633H212.121V10.7422H200.818V7.2793H212.121C212.602 7.2793 213.053 7.37305 213.475 7.56055C213.896 7.73633 214.26 7.98242 214.564 8.29883C214.881 8.60352 215.127 8.9668 215.303 9.38867C215.49 9.81055 215.584 10.2617 215.584 10.7422V26H212.121V22.8359C212.086 23.2695 211.969 23.6797 211.77 24.0664C211.57 24.4531 211.312 24.793 210.996 25.0859C210.691 25.3672 210.34 25.5898 209.941 25.7539C209.543 25.918 209.121 26 208.676 26H203.191C202.723 26 202.277 25.9121 201.855 25.7363C201.434 25.5488 201.064 25.3027 200.748 24.998C200.443 24.6816 200.197 24.3125 200.01 23.8906C199.834 23.4688 199.746 23.0176 199.746 22.5371V17.8262ZM203.191 22.5371H212.121V17.8262H203.191V22.5371ZM224.812 10.7422V26H221.367V7.2793H224.812V10.584C224.836 10.127 224.941 9.69922 225.129 9.30078C225.316 8.89062 225.562 8.53906 225.867 8.24609C226.184 7.94141 226.547 7.70703 226.957 7.54297C227.367 7.36719 227.807 7.2793 228.275 7.2793H231.949C232.43 7.2793 232.875 7.37305 233.285 7.56055C233.707 7.73633 234.076 7.98242 234.393 8.29883C234.709 8.60352 234.955 8.9668 235.131 9.38867C235.318 9.81055 235.412 10.2617 235.412 10.7422V13.9062H231.949V10.7422H224.812ZM239.719 10.7422C239.719 10.2617 239.807 9.81055 239.982 9.38867C240.17 8.9668 240.416 8.60352 240.721 8.29883C241.037 7.98242 241.406 7.73633 241.828 7.56055C242.25 7.37305 242.695 7.2793 243.164 7.2793H252.814V0.0722656H256.277V26H252.814V22.8359C252.779 23.2695 252.662 23.6797 252.463 24.0664C252.264 24.4531 252.006 24.793 251.689 25.0859C251.385 25.3672 251.033 25.5898 250.635 25.7539C250.236 25.918 249.814 26 249.369 26H243.164C242.695 26 242.25 25.9121 241.828 25.7363C241.406 25.5488 241.037 25.3027 240.721 24.998C240.416 24.6816 240.17 24.3125 239.982 23.8906C239.807 23.4688 239.719 23.0176 239.719 22.5371V10.7422ZM243.164 22.5371H252.814V10.7422H243.164V22.5371Z" fill="#06CFCE"/>
</svg>
