<svg width="92" height="34" viewBox="0 0 92 34" fill="none" xmlns="http://www.w3.org/2000/svg">
<path d="M3.83789 0.792969V22.3965H16.793V26H0.234375V0.792969H3.83789ZM36.9551 22.5371C36.9551 23.0176 36.8613 23.4688 36.6738 23.8906C36.498 24.3125 36.252 24.6816 35.9355 24.998C35.6309 25.3027 35.2676 25.5488 34.8457 25.7363C34.4355 25.9121 33.9902 26 33.5098 26H24.2109C23.7422 26 23.2969 25.9121 22.875 25.7363C22.4531 25.5488 22.084 25.3027 21.7676 24.998C21.4629 24.6816 21.2168 24.3125 21.0293 23.8906C20.8535 23.4688 20.7656 23.0176 20.7656 22.5371V10.7422C20.7656 10.2617 20.8535 9.81055 21.0293 9.38867C21.2168 8.9668 21.4629 8.60352 21.7676 8.29883C22.084 7.98242 22.4531 7.73633 22.875 7.56055C23.2969 7.37305 23.7422 7.2793 24.2109 7.2793H33.5098C33.9902 7.2793 34.4355 7.37305 34.8457 7.56055C35.2676 7.73633 35.6309 7.98242 35.9355 8.29883C36.252 8.60352 36.498 8.9668 36.6738 9.38867C36.8613 9.81055 36.9551 10.2617 36.9551 10.7422V22.5371ZM24.2109 10.7422V22.5371H33.5098V10.7422H24.2109ZM42.7383 10.7422C42.7383 10.2617 42.8262 9.81055 43.002 9.38867C43.1895 8.9668 43.4355 8.60352 43.7402 8.29883C44.0566 7.98242 44.4258 7.73633 44.8477 7.56055C45.2695 7.37305 45.7148 7.2793 46.1836 7.2793H52.3887C52.8457 7.2793 53.2793 7.36719 53.6895 7.54297C54.0996 7.70703 54.457 7.94141 54.7617 8.24609C55.0781 8.53906 55.3301 8.89062 55.5176 9.30078C55.7168 9.69922 55.8223 10.127 55.834 10.584V7.2793H59.2969V30.0957C59.2969 30.5762 59.2031 31.0273 59.0156 31.4492C58.8398 31.8711 58.5938 32.2344 58.2773 32.5391C57.9727 32.8555 57.6094 33.1016 57.1875 33.2773C56.7656 33.4648 56.3145 33.5586 55.834 33.5586H44.9004V30.0957H55.834V25.2793H46.1836C45.7148 25.2793 45.2695 25.1914 44.8477 25.0156C44.4258 24.8281 44.0566 24.582 43.7402 24.2773C43.4355 23.9609 43.1895 23.5918 43.002 23.1699C42.8262 22.748 42.7383 22.2969 42.7383 21.8164V10.7422ZM55.834 21.8164V10.7422H46.1836V21.8164H55.834ZM68.7012 7.2793V26H65.2383V7.2793H68.7012ZM65.0625 0.0722656H68.877V3.67578H65.0625V0.0722656ZM91.2188 26H87.7559V10.7422H78.1055V26H74.6602V7.2793H78.1055V10.584C78.1289 10.127 78.2344 9.69922 78.4219 9.30078C78.6094 8.89062 78.8555 8.53906 79.1602 8.24609C79.4766 7.94141 79.8398 7.70703 80.25 7.54297C80.6602 7.36719 81.0996 7.2793 81.5684 7.2793H87.7559C88.2363 7.2793 88.6875 7.37305 89.1094 7.56055C89.5312 7.73633 89.8945 7.98242 90.1992 8.29883C90.5156 8.60352 90.7617 8.9668 90.9375 9.38867C91.125 9.81055 91.2188 10.2617 91.2188 10.7422V26Z" fill="#06CFCE"/>
</svg>
