<svg width="198" height="34" viewBox="0 0 198 34" fill="none" xmlns="http://www.w3.org/2000/svg">
<path d="M0.234375 4.39648C0.234375 3.9043 0.328125 3.44141 0.515625 3.00781C0.703125 2.5625 0.960938 2.18164 1.28906 1.86523C1.61719 1.53711 1.99805 1.2793 2.43164 1.0918C2.87695 0.892578 3.3457 0.792969 3.83789 0.792969H17.5137C18.0059 0.792969 18.4688 0.892578 18.9023 1.0918C19.3477 1.2793 19.7344 1.53711 20.0625 1.86523C20.3906 2.18164 20.6484 2.5625 20.8359 3.00781C21.0234 3.44141 21.1172 3.9043 21.1172 4.39648V7.64844H17.5137V4.39648H3.83789V22.3965H17.5137V19.1621H21.1172V22.3965C21.1172 22.8887 21.0234 23.3574 20.8359 23.8027C20.6484 24.2363 20.3906 24.6172 20.0625 24.9453C19.7344 25.2734 19.3477 25.5312 18.9023 25.7188C18.4688 25.9062 18.0059 26 17.5137 26H3.83789C3.3457 26 2.87695 25.9062 2.43164 25.7188C1.99805 25.5312 1.61719 25.2734 1.28906 24.9453C0.960938 24.6172 0.703125 24.2363 0.515625 23.8027C0.328125 23.3574 0.234375 22.8887 0.234375 22.3965V4.39648ZM26.5312 17.8262C26.5312 17.3457 26.6191 16.9004 26.7949 16.4902C26.9824 16.0684 27.2285 15.6992 27.5332 15.3828C27.8496 15.0664 28.2188 14.8203 28.6406 14.6445C29.0625 14.457 29.5078 14.3633 29.9766 14.3633H38.9062V10.7422H27.6035V7.2793H38.9062C39.3867 7.2793 39.8379 7.37305 40.2598 7.56055C40.6816 7.73633 41.0449 7.98242 41.3496 8.29883C41.666 8.60352 41.9121 8.9668 42.0879 9.38867C42.2754 9.81055 42.3691 10.2617 42.3691 10.7422V26H38.9062V22.8359C38.8711 23.2695 38.7539 23.6797 38.5547 24.0664C38.3555 24.4531 38.0977 24.793 37.7812 25.0859C37.4766 25.3672 37.125 25.5898 36.7266 25.7539C36.3281 25.918 35.9062 26 35.4609 26H29.9766C29.5078 26 29.0625 25.9121 28.6406 25.7363C28.2188 25.5488 27.8496 25.3027 27.5332 24.998C27.2285 24.6816 26.9824 24.3125 26.7949 23.8906C26.6191 23.4688 26.5312 23.0176 26.5312 22.5371V17.8262ZM29.9766 22.5371H38.9062V17.8262H29.9766V22.5371ZM47.0625 7.2793H51.6328V1.51367H55.0957V7.2793H61.248V10.7422H55.0957V22.5371H61.248V26H55.0957C54.627 26 54.1816 25.9121 53.7598 25.7363C53.3379 25.5488 52.9688 25.3027 52.6523 24.998C52.3359 24.6816 52.084 24.3125 51.8965 23.8906C51.7207 23.4688 51.6328 23.0176 51.6328 22.5371V10.7422H47.0625V7.2793ZM82.8691 18.4062H70.4766V22.5371H82.8691V26H70.4766C70.0078 26 69.5625 25.9121 69.1406 25.7363C68.7188 25.5488 68.3496 25.3027 68.0332 24.998C67.7285 24.6816 67.4824 24.3125 67.2949 23.8906C67.1191 23.4688 67.0312 23.0176 67.0312 22.5371V10.7422C67.0312 10.2617 67.1191 9.81055 67.2949 9.38867C67.4824 8.9668 67.7285 8.60352 68.0332 8.29883C68.3496 7.98242 68.7188 7.73633 69.1406 7.56055C69.5625 7.37305 70.0078 7.2793 70.4766 7.2793H79.4062C79.8867 7.2793 80.3379 7.37305 80.7598 7.56055C81.1816 7.73633 81.5449 7.98242 81.8496 8.29883C82.166 8.60352 82.4121 8.9668 82.5879 9.38867C82.7754 9.81055 82.8691 10.2617 82.8691 10.7422V18.4062ZM70.4766 10.7422V14.9434H79.4062V10.7422H70.4766ZM88.6523 10.7422C88.6523 10.2617 88.7402 9.81055 88.916 9.38867C89.1035 8.9668 89.3496 8.60352 89.6543 8.29883C89.9707 7.98242 90.3398 7.73633 90.7617 7.56055C91.1836 7.37305 91.6289 7.2793 92.0977 7.2793H98.3027C98.7598 7.2793 99.1934 7.36719 99.6035 7.54297C100.014 7.70703 100.371 7.94141 100.676 8.24609C100.992 8.53906 101.244 8.89062 101.432 9.30078C101.631 9.69922 101.736 10.127 101.748 10.584V7.2793H105.211V30.0957C105.211 30.5762 105.117 31.0273 104.93 31.4492C104.754 31.8711 104.508 32.2344 104.191 32.5391C103.887 32.8555 103.523 33.1016 103.102 33.2773C102.68 33.4648 102.229 33.5586 101.748 33.5586H90.8145V30.0957H101.748V25.2793H92.0977C91.6289 25.2793 91.1836 25.1914 90.7617 25.0156C90.3398 24.8281 89.9707 24.582 89.6543 24.2773C89.3496 23.9609 89.1035 23.5918 88.916 23.1699C88.7402 22.748 88.6523 22.2969 88.6523 21.8164V10.7422ZM101.748 21.8164V10.7422H92.0977V21.8164H101.748ZM127.166 22.5371C127.166 23.0176 127.072 23.4688 126.885 23.8906C126.709 24.3125 126.463 24.6816 126.146 24.998C125.842 25.3027 125.479 25.5488 125.057 25.7363C124.646 25.9121 124.201 26 123.721 26H114.422C113.953 26 113.508 25.9121 113.086 25.7363C112.664 25.5488 112.295 25.3027 111.979 24.998C111.674 24.6816 111.428 24.3125 111.24 23.8906C111.064 23.4688 110.977 23.0176 110.977 22.5371V10.7422C110.977 10.2617 111.064 9.81055 111.24 9.38867C111.428 8.9668 111.674 8.60352 111.979 8.29883C112.295 7.98242 112.664 7.73633 113.086 7.56055C113.508 7.37305 113.953 7.2793 114.422 7.2793H123.721C124.201 7.2793 124.646 7.37305 125.057 7.56055C125.479 7.73633 125.842 7.98242 126.146 8.29883C126.463 8.60352 126.709 8.9668 126.885 9.38867C127.072 9.81055 127.166 10.2617 127.166 10.7422V22.5371ZM114.422 10.7422V22.5371H123.721V10.7422H114.422ZM136.395 10.7422V26H132.949V7.2793H136.395V10.584C136.418 10.127 136.523 9.69922 136.711 9.30078C136.898 8.89062 137.145 8.53906 137.449 8.24609C137.766 7.94141 138.129 7.70703 138.539 7.54297C138.949 7.36719 139.389 7.2793 139.857 7.2793H143.531C144.012 7.2793 144.457 7.37305 144.867 7.56055C145.289 7.73633 145.658 7.98242 145.975 8.29883C146.291 8.60352 146.537 8.9668 146.713 9.38867C146.9 9.81055 146.994 10.2617 146.994 10.7422V13.9062H143.531V10.7422H136.395ZM154.939 7.2793V26H151.477V7.2793H154.939ZM151.301 0.0722656H155.115V3.67578H151.301V0.0722656ZM176.736 18.4062H164.344V22.5371H176.736V26H164.344C163.875 26 163.43 25.9121 163.008 25.7363C162.586 25.5488 162.217 25.3027 161.9 24.998C161.596 24.6816 161.35 24.3125 161.162 23.8906C160.986 23.4688 160.898 23.0176 160.898 22.5371V10.7422C160.898 10.2617 160.986 9.81055 161.162 9.38867C161.35 8.9668 161.596 8.60352 161.9 8.29883C162.217 7.98242 162.586 7.73633 163.008 7.56055C163.43 7.37305 163.875 7.2793 164.344 7.2793H173.273C173.754 7.2793 174.205 7.37305 174.627 7.56055C175.049 7.73633 175.412 7.98242 175.717 8.29883C176.033 8.60352 176.279 8.9668 176.455 9.38867C176.643 9.81055 176.736 10.2617 176.736 10.7422V18.4062ZM164.344 10.7422V14.9434H173.273V10.7422H164.344ZM193.822 22.5371V18.1953H185.613C185.133 18.1953 184.682 18.1074 184.26 17.9316C183.838 17.7441 183.469 17.498 183.152 17.1934C182.848 16.877 182.602 16.5078 182.414 16.0859C182.238 15.6641 182.15 15.2129 182.15 14.7324V10.7422C182.15 10.2617 182.238 9.81055 182.414 9.38867C182.602 8.9668 182.848 8.60352 183.152 8.29883C183.469 7.98242 183.838 7.73633 184.26 7.56055C184.682 7.37305 185.133 7.2793 185.613 7.2793H196.564V10.7422H185.613V14.7324H193.822C194.303 14.7324 194.748 14.8262 195.158 15.0137C195.58 15.1895 195.949 15.4355 196.266 15.752C196.582 16.0566 196.828 16.4199 197.004 16.8418C197.191 17.2637 197.285 17.7148 197.285 18.1953V22.5371C197.285 23.0176 197.191 23.4688 197.004 23.8906C196.828 24.3125 196.582 24.6816 196.266 24.998C195.949 25.3027 195.58 25.5488 195.158 25.7363C194.748 25.9121 194.303 26 193.822 26H182.15V22.5371H193.822Z" fill="#06CFCE"/>
</svg>
