<svg width="188" height="26" viewBox="0 0 188 26" fill="none" xmlns="http://www.w3.org/2000/svg">
<path d="M0.234375 0.792969H3.83789V22.3965H18.2344V0.792969H21.8379V22.3965C21.8379 22.8887 21.7441 23.3574 21.5566 23.8027C21.3691 24.2363 21.1113 24.6172 20.7832 24.9453C20.4551 25.2734 20.0684 25.5312 19.623 25.7188C19.1895 25.9062 18.7266 26 18.2344 26H3.83789C3.3457 26 2.87695 25.9062 2.43164 25.7188C1.99805 25.5312 1.61719 25.2734 1.28906 24.9453C0.960938 24.6172 0.703125 24.2363 0.515625 23.8027C0.328125 23.3574 0.234375 22.8887 0.234375 22.3965V0.792969ZM39.2754 22.5371V18.1953H31.0664C30.5859 18.1953 30.1348 18.1074 29.7129 17.9316C29.291 17.7441 28.9219 17.498 28.6055 17.1934C28.3008 16.877 28.0547 16.5078 27.8672 16.0859C27.6914 15.6641 27.6035 15.2129 27.6035 14.7324V10.7422C27.6035 10.2617 27.6914 9.81055 27.8672 9.38867C28.0547 8.9668 28.3008 8.60352 28.6055 8.29883C28.9219 7.98242 29.291 7.73633 29.7129 7.56055C30.1348 7.37305 30.5859 7.2793 31.0664 7.2793H42.0176V10.7422H31.0664V14.7324H39.2754C39.7559 14.7324 40.2012 14.8262 40.6113 15.0137C41.0332 15.1895 41.4023 15.4355 41.7188 15.752C42.0352 16.0566 42.2812 16.4199 42.457 16.8418C42.6445 17.2637 42.7383 17.7148 42.7383 18.1953V22.5371C42.7383 23.0176 42.6445 23.4688 42.457 23.8906C42.2812 24.3125 42.0352 24.6816 41.7188 24.998C41.4023 25.3027 41.0332 25.5488 40.6113 25.7363C40.2012 25.9121 39.7559 26 39.2754 26H27.6035V22.5371H39.2754ZM63.9902 18.4062H51.5977V22.5371H63.9902V26H51.5977C51.1289 26 50.6836 25.9121 50.2617 25.7363C49.8398 25.5488 49.4707 25.3027 49.1543 24.998C48.8496 24.6816 48.6035 24.3125 48.416 23.8906C48.2402 23.4688 48.1523 23.0176 48.1523 22.5371V10.7422C48.1523 10.2617 48.2402 9.81055 48.416 9.38867C48.6035 8.9668 48.8496 8.60352 49.1543 8.29883C49.4707 7.98242 49.8398 7.73633 50.2617 7.56055C50.6836 7.37305 51.1289 7.2793 51.5977 7.2793H60.5273C61.0078 7.2793 61.459 7.37305 61.8809 7.56055C62.3027 7.73633 62.666 7.98242 62.9707 8.29883C63.2871 8.60352 63.5332 8.9668 63.709 9.38867C63.8965 9.81055 63.9902 10.2617 63.9902 10.7422V18.4062ZM51.5977 10.7422V14.9434H60.5273V10.7422H51.5977ZM73.2188 10.7422V26H69.7734V7.2793H73.2188V10.584C73.2422 10.127 73.3477 9.69922 73.5352 9.30078C73.7227 8.89062 73.9688 8.53906 74.2734 8.24609C74.5898 7.94141 74.9531 7.70703 75.3633 7.54297C75.7734 7.36719 76.2129 7.2793 76.6816 7.2793H80.3555C80.8359 7.2793 81.2812 7.37305 81.6914 7.56055C82.1133 7.73633 82.4824 7.98242 82.7988 8.29883C83.1152 8.60352 83.3613 8.9668 83.5371 9.38867C83.7246 9.81055 83.8184 10.2617 83.8184 10.7422V13.9062H80.3555V10.7422H73.2188ZM99.4277 22.5371V18.1953H91.2188C90.7383 18.1953 90.2871 18.1074 89.8652 17.9316C89.4434 17.7441 89.0742 17.498 88.7578 17.1934C88.4531 16.877 88.207 16.5078 88.0195 16.0859C87.8438 15.6641 87.7559 15.2129 87.7559 14.7324V10.7422C87.7559 10.2617 87.8438 9.81055 88.0195 9.38867C88.207 8.9668 88.4531 8.60352 88.7578 8.29883C89.0742 7.98242 89.4434 7.73633 89.8652 7.56055C90.2871 7.37305 90.7383 7.2793 91.2188 7.2793H102.17V10.7422H91.2188V14.7324H99.4277C99.9082 14.7324 100.354 14.8262 100.764 15.0137C101.186 15.1895 101.555 15.4355 101.871 15.752C102.188 16.0566 102.434 16.4199 102.609 16.8418C102.797 17.2637 102.891 17.7148 102.891 18.1953V22.5371C102.891 23.0176 102.797 23.4688 102.609 23.8906C102.434 24.3125 102.188 24.6816 101.871 24.998C101.555 25.3027 101.186 25.5488 100.764 25.7363C100.354 25.9121 99.9082 26 99.4277 26H87.7559V22.5371H99.4277ZM119.449 0.792969H137.818V4.39648H123.053V11.6035H135.656V15.207H123.053V22.3965H137.818V26H119.449V0.792969ZM142.863 10.7422C142.863 10.2617 142.951 9.81055 143.127 9.38867C143.314 8.9668 143.561 8.60352 143.865 8.29883C144.182 7.98242 144.551 7.73633 144.973 7.56055C145.395 7.37305 145.84 7.2793 146.309 7.2793H155.959V0.0722656H159.422V26H155.959V22.8359C155.924 23.2695 155.807 23.6797 155.607 24.0664C155.408 24.4531 155.15 24.793 154.834 25.0859C154.529 25.3672 154.178 25.5898 153.779 25.7539C153.381 25.918 152.959 26 152.514 26H146.309C145.84 26 145.395 25.9121 144.973 25.7363C144.551 25.5488 144.182 25.3027 143.865 24.998C143.561 24.6816 143.314 24.3125 143.127 23.8906C142.951 23.4688 142.863 23.0176 142.863 22.5371V10.7422ZM146.309 22.5371H155.959V10.7422H146.309V22.5371ZM168.826 7.2793V26H165.363V7.2793H168.826ZM165.188 0.0722656H169.002V3.67578H165.188V0.0722656ZM173.695 7.2793H178.266V1.51367H181.729V7.2793H187.881V10.7422H181.729V22.5371H187.881V26H181.729C181.26 26 180.814 25.9121 180.393 25.7363C179.971 25.5488 179.602 25.3027 179.285 24.998C178.969 24.6816 178.717 24.3125 178.529 23.8906C178.354 23.4688 178.266 23.0176 178.266 22.5371V10.7422H173.695V7.2793Z" fill="#06CFCE"/>
</svg>
