<svg width="96" height="26" viewBox="0 0 96 26" fill="none" xmlns="http://www.w3.org/2000/svg">
<path d="M4.16211 15.207C3.66992 15.207 3.20117 15.1133 2.75586 14.9258C2.32227 14.7266 1.94141 14.4688 1.61328 14.1523C1.28516 13.8242 1.02734 13.4434 0.839844 13.0098C0.652344 12.5645 0.558594 12.0957 0.558594 11.6035V4.39648C0.558594 3.9043 0.652344 3.44141 0.839844 3.00781C1.02734 2.5625 1.28516 2.18164 1.61328 1.86523C1.94141 1.53711 2.32227 1.2793 2.75586 1.0918C3.20117 0.892578 3.66992 0.792969 4.16211 0.792969H16.3965C16.8887 0.792969 17.3516 0.892578 17.7852 1.0918C18.2305 1.2793 18.6172 1.53711 18.9453 1.86523C19.2734 2.18164 19.5312 2.5625 19.7188 3.00781C19.9062 3.44141 20 3.9043 20 4.39648V7.64844H16.3965V4.39648H4.16211V11.6035H16.3965C16.8887 11.6035 17.3516 11.6973 17.7852 11.8848C18.2305 12.0723 18.6172 12.3301 18.9453 12.6582C19.2734 12.9863 19.5312 13.373 19.7188 13.8184C19.9062 14.252 20 14.7148 20 15.207V22.3965C20 22.8887 19.9062 23.3574 19.7188 23.8027C19.5312 24.2363 19.2734 24.6172 18.9453 24.9453C18.6172 25.2734 18.2305 25.5312 17.7852 25.7188C17.3516 25.9062 16.8887 26 16.3965 26H3.81055C3.31836 26 2.84961 25.9062 2.4043 25.7188C1.9707 25.5312 1.58984 25.2734 1.26172 24.9453C0.933594 24.6172 0.675781 24.2363 0.488281 23.8027C0.300781 23.3574 0.207031 22.8887 0.207031 22.3965V19.1621H3.81055V22.3965H16.3965V15.207H4.16211ZM42.7109 26H39.248V10.7422H29.5977V26H26.1523V0.0722656H29.5977V10.584C29.6211 10.127 29.7266 9.69922 29.9141 9.30078C30.1016 8.89062 30.3477 8.53906 30.6523 8.24609C30.9688 7.94141 31.332 7.70703 31.7422 7.54297C32.1523 7.36719 32.5918 7.2793 33.0605 7.2793H39.248C39.7285 7.2793 40.1797 7.37305 40.6016 7.56055C41.0234 7.73633 41.3867 7.98242 41.6914 8.29883C42.0078 8.60352 42.2539 8.9668 42.4297 9.38867C42.6172 9.81055 42.7109 10.2617 42.7109 10.7422V26ZM64.666 22.5371C64.666 23.0176 64.5723 23.4688 64.3848 23.8906C64.209 24.3125 63.9629 24.6816 63.6465 24.998C63.3418 25.3027 62.9785 25.5488 62.5566 25.7363C62.1465 25.9121 61.7012 26 61.2207 26H51.9219C51.4531 26 51.0078 25.9121 50.5859 25.7363C50.1641 25.5488 49.7949 25.3027 49.4785 24.998C49.1738 24.6816 48.9277 24.3125 48.7402 23.8906C48.5645 23.4688 48.4766 23.0176 48.4766 22.5371V10.7422C48.4766 10.2617 48.5645 9.81055 48.7402 9.38867C48.9277 8.9668 49.1738 8.60352 49.4785 8.29883C49.7949 7.98242 50.1641 7.73633 50.5859 7.56055C51.0078 7.37305 51.4531 7.2793 51.9219 7.2793H61.2207C61.7012 7.2793 62.1465 7.37305 62.5566 7.56055C62.9785 7.73633 63.3418 7.98242 63.6465 8.29883C63.9629 8.60352 64.209 8.9668 64.3848 9.38867C64.5723 9.81055 64.666 10.2617 64.666 10.7422V22.5371ZM51.9219 10.7422V22.5371H61.2207V10.7422H51.9219ZM74.334 26L68.2871 7.2793H71.7852L76.2148 21.3945L80.3457 7.2793H83.8789L88.0098 21.3945L92.4395 7.2793H95.9375L89.8906 26H86.2871L82.1035 12.2539L77.9375 26H74.334Z" fill="#06CFCE"/>
</svg>
