<svg width="242" height="34" viewBox="0 0 242 34" fill="none" xmlns="http://www.w3.org/2000/svg">
<path d="M13.2422 26L3.83789 7.52539V26H0.234375V0.792969H4.17188L13.7695 19.7773L23.3848 0.792969H27.3047V26H23.7188V7.52539L14.3145 26H13.2422ZM34.7227 33.5586L38.6426 24.3125L31.2949 7.2793H34.9336L40.4004 20.1641L45.8672 7.2793H49.5059L38.168 33.5586H34.7227ZM64.2539 4.39648C64.2539 3.9043 64.3477 3.44141 64.5352 3.00781C64.7227 2.5625 64.9805 2.18164 65.3086 1.86523C65.6367 1.53711 66.0176 1.2793 66.4512 1.0918C66.8965 0.892578 67.3652 0.792969 67.8574 0.792969H81.5332C82.0254 0.792969 82.4883 0.892578 82.9219 1.0918C83.3672 1.2793 83.7539 1.53711 84.082 1.86523C84.4102 2.18164 84.668 2.5625 84.8555 3.00781C85.043 3.44141 85.1367 3.9043 85.1367 4.39648V7.64844H81.5332V4.39648H67.8574V22.3965H81.5332V19.1621H85.1367V22.3965C85.1367 22.8887 85.043 23.3574 84.8555 23.8027C84.668 24.2363 84.4102 24.6172 84.082 24.9453C83.7539 25.2734 83.3672 25.5312 82.9219 25.7188C82.4883 25.9062 82.0254 26 81.5332 26H67.8574C67.3652 26 66.8965 25.9062 66.4512 25.7188C66.0176 25.5312 65.6367 25.2734 65.3086 24.9453C64.9805 24.6172 64.7227 24.2363 64.5352 23.8027C64.3477 23.3574 64.2539 22.8887 64.2539 22.3965V4.39648ZM106.74 22.5371C106.74 23.0176 106.646 23.4688 106.459 23.8906C106.283 24.3125 106.037 24.6816 105.721 24.998C105.416 25.3027 105.053 25.5488 104.631 25.7363C104.221 25.9121 103.775 26 103.295 26H93.9961C93.5273 26 93.082 25.9121 92.6602 25.7363C92.2383 25.5488 91.8691 25.3027 91.5527 24.998C91.248 24.6816 91.002 24.3125 90.8145 23.8906C90.6387 23.4688 90.5508 23.0176 90.5508 22.5371V10.7422C90.5508 10.2617 90.6387 9.81055 90.8145 9.38867C91.002 8.9668 91.248 8.60352 91.5527 8.29883C91.8691 7.98242 92.2383 7.73633 92.6602 7.56055C93.082 7.37305 93.5273 7.2793 93.9961 7.2793H103.295C103.775 7.2793 104.221 7.37305 104.631 7.56055C105.053 7.73633 105.416 7.98242 105.721 8.29883C106.037 8.60352 106.283 8.9668 106.459 9.38867C106.646 9.81055 106.74 10.2617 106.74 10.7422V22.5371ZM93.9961 10.7422V22.5371H103.295V10.7422H93.9961ZM115.969 0.0722656V26H112.523V0.0722656H115.969ZM125.18 0.0722656V26H121.734V0.0722656H125.18ZM146.783 18.4062H134.391V22.5371H146.783V26H134.391C133.922 26 133.477 25.9121 133.055 25.7363C132.633 25.5488 132.264 25.3027 131.947 24.998C131.643 24.6816 131.396 24.3125 131.209 23.8906C131.033 23.4688 130.945 23.0176 130.945 22.5371V10.7422C130.945 10.2617 131.033 9.81055 131.209 9.38867C131.396 8.9668 131.643 8.60352 131.947 8.29883C132.264 7.98242 132.633 7.73633 133.055 7.56055C133.477 7.37305 133.922 7.2793 134.391 7.2793H143.32C143.801 7.2793 144.252 7.37305 144.674 7.56055C145.096 7.73633 145.459 7.98242 145.764 8.29883C146.08 8.60352 146.326 8.9668 146.502 9.38867C146.689 9.81055 146.783 10.2617 146.783 10.7422V18.4062ZM134.391 10.7422V14.9434H143.32V10.7422H134.391ZM156.012 10.7422V22.5371H164.941V19.373H168.404V22.5371C168.404 23.0176 168.311 23.4688 168.123 23.8906C167.947 24.3125 167.701 24.6816 167.385 24.998C167.08 25.3027 166.717 25.5488 166.295 25.7363C165.873 25.9121 165.422 26 164.941 26H156.012C155.543 26 155.098 25.9121 154.676 25.7363C154.254 25.5488 153.885 25.3027 153.568 24.998C153.264 24.6816 153.018 24.3125 152.83 23.8906C152.654 23.4688 152.566 23.0176 152.566 22.5371V10.7422C152.566 10.2617 152.654 9.81055 152.83 9.38867C153.018 8.9668 153.264 8.60352 153.568 8.29883C153.885 7.98242 154.254 7.73633 154.676 7.56055C155.098 7.37305 155.543 7.2793 156.012 7.2793H164.941C165.422 7.2793 165.873 7.37305 166.295 7.56055C166.717 7.73633 167.08 7.98242 167.385 8.29883C167.701 8.60352 167.947 8.9668 168.123 9.38867C168.311 9.81055 168.404 10.2617 168.404 10.7422V13.9062H164.941V10.7422H156.012ZM173.098 7.2793H177.668V1.51367H181.131V7.2793H187.283V10.7422H181.131V22.5371H187.283V26H181.131C180.662 26 180.217 25.9121 179.795 25.7363C179.373 25.5488 179.004 25.3027 178.688 24.998C178.371 24.6816 178.119 24.3125 177.932 23.8906C177.756 23.4688 177.668 23.0176 177.668 22.5371V10.7422H173.098V7.2793ZM196.705 7.2793V26H193.242V7.2793H196.705ZM193.066 0.0722656H196.881V3.67578H193.066V0.0722656ZM218.854 22.5371C218.854 23.0176 218.76 23.4688 218.572 23.8906C218.396 24.3125 218.15 24.6816 217.834 24.998C217.529 25.3027 217.166 25.5488 216.744 25.7363C216.334 25.9121 215.889 26 215.408 26H206.109C205.641 26 205.195 25.9121 204.773 25.7363C204.352 25.5488 203.982 25.3027 203.666 24.998C203.361 24.6816 203.115 24.3125 202.928 23.8906C202.752 23.4688 202.664 23.0176 202.664 22.5371V10.7422C202.664 10.2617 202.752 9.81055 202.928 9.38867C203.115 8.9668 203.361 8.60352 203.666 8.29883C203.982 7.98242 204.352 7.73633 204.773 7.56055C205.195 7.37305 205.641 7.2793 206.109 7.2793H215.408C215.889 7.2793 216.334 7.37305 216.744 7.56055C217.166 7.73633 217.529 7.98242 217.834 8.29883C218.15 8.60352 218.396 8.9668 218.572 9.38867C218.76 9.81055 218.854 10.2617 218.854 10.7422V22.5371ZM206.109 10.7422V22.5371H215.408V10.7422H206.109ZM241.195 26H237.732V10.7422H228.082V26H224.637V7.2793H228.082V10.584C228.105 10.127 228.211 9.69922 228.398 9.30078C228.586 8.89062 228.832 8.53906 229.137 8.24609C229.453 7.94141 229.816 7.70703 230.227 7.54297C230.637 7.36719 231.076 7.2793 231.545 7.2793H237.732C238.213 7.2793 238.664 7.37305 239.086 7.56055C239.508 7.73633 239.871 7.98242 240.176 8.29883C240.492 8.60352 240.738 8.9668 240.914 9.38867C241.102 9.81055 241.195 10.2617 241.195 10.7422V26Z" fill="#06CFCE"/>
</svg>
