<svg width="155" height="34" viewBox="0 0 155 34" fill="none" xmlns="http://www.w3.org/2000/svg">
<path d="M20.1504 9.79297C20.1504 13.3086 18.6504 15.3125 15.6504 15.8047L20.3965 26H16.4062L11.7305 15.9277H3.83789V26H0.234375V0.792969H14.0332C18.1113 0.792969 20.1504 2.83789 20.1504 6.92773V9.79297ZM3.83789 12.3242H13.8398C14.8008 12.3242 15.4922 12.1133 15.9141 11.6914C16.3359 11.2695 16.5469 10.5781 16.5469 9.61719V7.10352C16.5469 6.14258 16.3359 5.45117 15.9141 5.0293C15.4922 4.60742 14.8008 4.39648 13.8398 4.39648H3.83789V12.3242ZM41.666 18.4062H29.2734V22.5371H41.666V26H29.2734C28.8047 26 28.3594 25.9121 27.9375 25.7363C27.5156 25.5488 27.1465 25.3027 26.8301 24.998C26.5254 24.6816 26.2793 24.3125 26.0918 23.8906C25.916 23.4688 25.8281 23.0176 25.8281 22.5371V10.7422C25.8281 10.2617 25.916 9.81055 26.0918 9.38867C26.2793 8.9668 26.5254 8.60352 26.8301 8.29883C27.1465 7.98242 27.5156 7.73633 27.9375 7.56055C28.3594 7.37305 28.8047 7.2793 29.2734 7.2793H38.2031C38.6836 7.2793 39.1348 7.37305 39.5566 7.56055C39.9785 7.73633 40.3418 7.98242 40.6465 8.29883C40.9629 8.60352 41.209 8.9668 41.3848 9.38867C41.5723 9.81055 41.666 10.2617 41.666 10.7422V18.4062ZM29.2734 10.7422V14.9434H38.2031V10.7422H29.2734ZM47.4492 10.7422C47.4492 10.2617 47.5371 9.81055 47.7129 9.38867C47.9004 8.9668 48.1465 8.60352 48.4512 8.29883C48.7676 7.98242 49.1367 7.73633 49.5586 7.56055C49.9805 7.37305 50.4258 7.2793 50.8945 7.2793H57.0996C57.5566 7.2793 57.9902 7.36719 58.4004 7.54297C58.8105 7.70703 59.168 7.94141 59.4727 8.24609C59.7891 8.53906 60.041 8.89062 60.2285 9.30078C60.4277 9.69922 60.5332 10.127 60.5449 10.584V7.2793H64.0078V30.0957C64.0078 30.5762 63.9141 31.0273 63.7266 31.4492C63.5508 31.8711 63.3047 32.2344 62.9883 32.5391C62.6836 32.8555 62.3203 33.1016 61.8984 33.2773C61.4766 33.4648 61.0254 33.5586 60.5449 33.5586H49.6113V30.0957H60.5449V25.2793H50.8945C50.4258 25.2793 49.9805 25.1914 49.5586 25.0156C49.1367 24.8281 48.7676 24.582 48.4512 24.2773C48.1465 23.9609 47.9004 23.5918 47.7129 23.1699C47.5371 22.748 47.4492 22.2969 47.4492 21.8164V10.7422ZM60.5449 21.8164V10.7422H50.8945V21.8164H60.5449ZM73.4121 7.2793V26H69.9492V7.2793H73.4121ZM69.7734 0.0722656H73.5879V3.67578H69.7734V0.0722656ZM90.6738 22.5371V18.1953H82.4648C81.9844 18.1953 81.5332 18.1074 81.1113 17.9316C80.6895 17.7441 80.3203 17.498 80.0039 17.1934C79.6992 16.877 79.4531 16.5078 79.2656 16.0859C79.0898 15.6641 79.002 15.2129 79.002 14.7324V10.7422C79.002 10.2617 79.0898 9.81055 79.2656 9.38867C79.4531 8.9668 79.6992 8.60352 80.0039 8.29883C80.3203 7.98242 80.6895 7.73633 81.1113 7.56055C81.5332 7.37305 81.9844 7.2793 82.4648 7.2793H93.416V10.7422H82.4648V14.7324H90.6738C91.1543 14.7324 91.5996 14.8262 92.0098 15.0137C92.4316 15.1895 92.8008 15.4355 93.1172 15.752C93.4336 16.0566 93.6797 16.4199 93.8555 16.8418C94.043 17.2637 94.1367 17.7148 94.1367 18.1953V22.5371C94.1367 23.0176 94.043 23.4688 93.8555 23.8906C93.6797 24.3125 93.4336 24.6816 93.1172 24.998C92.8008 25.3027 92.4316 25.5488 92.0098 25.7363C91.5996 25.9121 91.1543 26 90.6738 26H79.002V22.5371H90.6738ZM98.4609 7.2793H103.031V1.51367H106.494V7.2793H112.646V10.7422H106.494V22.5371H112.646V26H106.494C106.025 26 105.58 25.9121 105.158 25.7363C104.736 25.5488 104.367 25.3027 104.051 24.998C103.734 24.6816 103.482 24.3125 103.295 23.8906C103.119 23.4688 103.031 23.0176 103.031 22.5371V10.7422H98.4609V7.2793ZM134.268 18.4062H121.875V22.5371H134.268V26H121.875C121.406 26 120.961 25.9121 120.539 25.7363C120.117 25.5488 119.748 25.3027 119.432 24.998C119.127 24.6816 118.881 24.3125 118.693 23.8906C118.518 23.4688 118.43 23.0176 118.43 22.5371V10.7422C118.43 10.2617 118.518 9.81055 118.693 9.38867C118.881 8.9668 119.127 8.60352 119.432 8.29883C119.748 7.98242 120.117 7.73633 120.539 7.56055C120.961 7.37305 121.406 7.2793 121.875 7.2793H130.805C131.285 7.2793 131.736 7.37305 132.158 7.56055C132.58 7.73633 132.943 7.98242 133.248 8.29883C133.564 8.60352 133.811 8.9668 133.986 9.38867C134.174 9.81055 134.268 10.2617 134.268 10.7422V18.4062ZM121.875 10.7422V14.9434H130.805V10.7422H121.875ZM143.496 10.7422V26H140.051V7.2793H143.496V10.584C143.52 10.127 143.625 9.69922 143.812 9.30078C144 8.89062 144.246 8.53906 144.551 8.24609C144.867 7.94141 145.23 7.70703 145.641 7.54297C146.051 7.36719 146.49 7.2793 146.959 7.2793H150.633C151.113 7.2793 151.559 7.37305 151.969 7.56055C152.391 7.73633 152.76 7.98242 153.076 8.29883C153.393 8.60352 153.639 8.9668 153.814 9.38867C154.002 9.81055 154.096 10.2617 154.096 10.7422V13.9062H150.633V10.7422H143.496Z" fill="#06CFCE"/>
</svg>
