<svg width="182" height="34" viewBox="0 0 182 34" fill="none" xmlns="http://www.w3.org/2000/svg">
<path d="M13.4805 26L4.07617 7.52539V26H0.472656V0.792969H4.41016L14.0078 19.7773L23.623 0.792969H27.543V26H23.957V7.52539L14.5527 26H13.4805ZM34.9609 33.5586L38.8809 24.3125L31.5332 7.2793H35.1719L40.6387 20.1641L46.1055 7.2793H49.7441L38.4062 33.5586H34.9609ZM64.4922 26V0.792969H78.291C82.3691 0.792969 84.4082 2.83789 84.4082 6.92773V10.5137C84.4082 14.6035 82.3691 16.6484 78.291 16.6484H68.0957V26H64.4922ZM68.0957 13.0449H78.0977C79.0586 13.0449 79.75 12.834 80.1719 12.4121C80.5938 11.9902 80.8047 11.2988 80.8047 10.3379V7.10352C80.8047 6.14258 80.5938 5.45117 80.1719 5.0293C79.75 4.60742 79.0586 4.39648 78.0977 4.39648H68.0957V13.0449ZM92.5469 10.7422V26H89.1016V7.2793H92.5469V10.584C92.5703 10.127 92.6758 9.69922 92.8633 9.30078C93.0508 8.89062 93.2969 8.53906 93.6016 8.24609C93.918 7.94141 94.2812 7.70703 94.6914 7.54297C95.1016 7.36719 95.541 7.2793 96.0098 7.2793H99.6836C100.164 7.2793 100.609 7.37305 101.02 7.56055C101.441 7.73633 101.811 7.98242 102.127 8.29883C102.443 8.60352 102.689 8.9668 102.865 9.38867C103.053 9.81055 103.146 10.2617 103.146 10.7422V13.9062H99.6836V10.7422H92.5469ZM123.643 22.5371C123.643 23.0176 123.549 23.4688 123.361 23.8906C123.186 24.3125 122.939 24.6816 122.623 24.998C122.318 25.3027 121.955 25.5488 121.533 25.7363C121.123 25.9121 120.678 26 120.197 26H110.898C110.43 26 109.984 25.9121 109.562 25.7363C109.141 25.5488 108.771 25.3027 108.455 24.998C108.15 24.6816 107.904 24.3125 107.717 23.8906C107.541 23.4688 107.453 23.0176 107.453 22.5371V10.7422C107.453 10.2617 107.541 9.81055 107.717 9.38867C107.904 8.9668 108.15 8.60352 108.455 8.29883C108.771 7.98242 109.141 7.73633 109.562 7.56055C109.984 7.37305 110.43 7.2793 110.898 7.2793H120.197C120.678 7.2793 121.123 7.37305 121.533 7.56055C121.955 7.73633 122.318 7.98242 122.623 8.29883C122.939 8.60352 123.186 8.9668 123.361 9.38867C123.549 9.81055 123.643 10.2617 123.643 10.7422V22.5371ZM110.898 10.7422V22.5371H120.197V10.7422H110.898ZM136.369 3.53516V7.2793H142.521V10.7422H136.369V26H132.906V10.7422H128.336V7.2793H132.906V3.53516C132.906 3.05469 132.994 2.60937 133.17 2.19922C133.357 1.77734 133.609 1.4082 133.926 1.0918C134.242 0.775391 134.611 0.529297 135.033 0.353516C135.455 0.166016 135.9 0.0722656 136.369 0.0722656H142.521V3.53516H136.369ZM150.854 7.2793V26H147.391V7.2793H150.854ZM147.215 0.0722656H151.029V3.67578H147.215V0.0722656ZM160.258 0.0722656V26H156.812V0.0722656H160.258ZM181.861 18.4062H169.469V22.5371H181.861V26H169.469C169 26 168.555 25.9121 168.133 25.7363C167.711 25.5488 167.342 25.3027 167.025 24.998C166.721 24.6816 166.475 24.3125 166.287 23.8906C166.111 23.4688 166.023 23.0176 166.023 22.5371V10.7422C166.023 10.2617 166.111 9.81055 166.287 9.38867C166.475 8.9668 166.721 8.60352 167.025 8.29883C167.342 7.98242 167.711 7.73633 168.133 7.56055C168.555 7.37305 169 7.2793 169.469 7.2793H178.398C178.879 7.2793 179.33 7.37305 179.752 7.56055C180.174 7.73633 180.537 7.98242 180.842 8.29883C181.158 8.60352 181.404 8.9668 181.58 9.38867C181.768 9.81055 181.861 10.2617 181.861 10.7422V18.4062ZM169.469 10.7422V14.9434H178.398V10.7422H169.469Z" fill="#06CFCE"/>
</svg>
