<svg width="193" height="26" viewBox="0 0 193 26" fill="none" xmlns="http://www.w3.org/2000/svg">
<path d="M13.0488 22.3965C14.7246 22.3965 16.0137 21.9453 16.916 21.043C17.8184 20.1406 18.2695 18.8516 18.2695 17.1758V9.61719C18.2695 8.79688 18.1523 8.06445 17.918 7.41992C17.6836 6.77539 17.3379 6.23047 16.8809 5.78516C16.4355 5.32812 15.8906 4.98242 15.2461 4.74805C14.6016 4.51367 13.8691 4.39648 13.0488 4.39648H3.83789V22.3965H13.0488ZM0.234375 26V0.792969H13.0488C14.3965 0.792969 15.6094 1.00391 16.6875 1.42578C17.7773 1.83594 18.7031 2.42773 19.4648 3.20117C20.2383 3.96289 20.8301 4.88867 21.2402 5.97852C21.6621 7.06836 21.873 8.28125 21.873 9.61719V17.1758C21.873 18.5117 21.6621 19.7246 21.2402 20.8145C20.8301 21.9043 20.2383 22.8359 19.4648 23.6094C18.7031 24.3711 17.7773 24.9629 16.6875 25.3848C15.6094 25.7949 14.3965 26 13.0488 26H0.234375ZM27.3047 17.8262C27.3047 17.3457 27.3926 16.9004 27.5684 16.4902C27.7559 16.0684 28.002 15.6992 28.3066 15.3828C28.623 15.0664 28.9922 14.8203 29.4141 14.6445C29.8359 14.457 30.2812 14.3633 30.75 14.3633H39.6797V10.7422H28.377V7.2793H39.6797C40.1602 7.2793 40.6113 7.37305 41.0332 7.56055C41.4551 7.73633 41.8184 7.98242 42.123 8.29883C42.4395 8.60352 42.6855 8.9668 42.8613 9.38867C43.0488 9.81055 43.1426 10.2617 43.1426 10.7422V26H39.6797V22.8359C39.6445 23.2695 39.5273 23.6797 39.3281 24.0664C39.1289 24.4531 38.8711 24.793 38.5547 25.0859C38.25 25.3672 37.8984 25.5898 37.5 25.7539C37.1016 25.918 36.6797 26 36.2344 26H30.75C30.2812 26 29.8359 25.9121 29.4141 25.7363C28.9922 25.5488 28.623 25.3027 28.3066 24.998C28.002 24.6816 27.7559 24.3125 27.5684 23.8906C27.3926 23.4688 27.3047 23.0176 27.3047 22.5371V17.8262ZM30.75 22.5371H39.6797V17.8262H30.75V22.5371ZM60.2285 22.5371V18.1953H52.0195C51.5391 18.1953 51.0879 18.1074 50.666 17.9316C50.2441 17.7441 49.875 17.498 49.5586 17.1934C49.2539 16.877 49.0078 16.5078 48.8203 16.0859C48.6445 15.6641 48.5566 15.2129 48.5566 14.7324V10.7422C48.5566 10.2617 48.6445 9.81055 48.8203 9.38867C49.0078 8.9668 49.2539 8.60352 49.5586 8.29883C49.875 7.98242 50.2441 7.73633 50.666 7.56055C51.0879 7.37305 51.5391 7.2793 52.0195 7.2793H62.9707V10.7422H52.0195V14.7324H60.2285C60.709 14.7324 61.1543 14.8262 61.5645 15.0137C61.9863 15.1895 62.3555 15.4355 62.6719 15.752C62.9883 16.0566 63.2344 16.4199 63.4102 16.8418C63.5977 17.2637 63.6914 17.7148 63.6914 18.1953V22.5371C63.6914 23.0176 63.5977 23.4688 63.4102 23.8906C63.2344 24.3125 62.9883 24.6816 62.6719 24.998C62.3555 25.3027 61.9863 25.5488 61.5645 25.7363C61.1543 25.9121 60.709 26 60.2285 26H48.5566V22.5371H60.2285ZM85.6641 26H82.2012V10.7422H72.5508V26H69.1055V0.0722656H72.5508V10.584C72.5742 10.127 72.6797 9.69922 72.8672 9.30078C73.0547 8.89062 73.3008 8.53906 73.6055 8.24609C73.9219 7.94141 74.2852 7.70703 74.6953 7.54297C75.1055 7.36719 75.5449 7.2793 76.0137 7.2793H82.2012C82.6816 7.2793 83.1328 7.37305 83.5547 7.56055C83.9766 7.73633 84.3398 7.98242 84.6445 8.29883C84.9609 8.60352 85.207 8.9668 85.3828 9.38867C85.5703 9.81055 85.6641 10.2617 85.6641 10.7422V26ZM107.988 22.5371C107.988 23.0176 107.895 23.4688 107.707 23.8906C107.531 24.3125 107.285 24.6816 106.969 24.998C106.664 25.3027 106.301 25.5488 105.879 25.7363C105.457 25.9121 105.006 26 104.525 26H94.875C94.4062 26 93.9609 25.9121 93.5391 25.7363C93.1172 25.5488 92.748 25.3027 92.4316 24.998C92.127 24.6816 91.8809 24.3125 91.6934 23.8906C91.5176 23.4688 91.4297 23.0176 91.4297 22.5371V0.0722656H94.875V10.584C94.8984 10.127 95.0039 9.69922 95.1914 9.30078C95.3789 8.89062 95.625 8.53906 95.9297 8.24609C96.2461 7.94141 96.6094 7.70703 97.0195 7.54297C97.4297 7.36719 97.8691 7.2793 98.3379 7.2793H104.525C105.006 7.2793 105.457 7.37305 105.879 7.56055C106.301 7.73633 106.664 7.98242 106.969 8.29883C107.285 8.60352 107.531 8.9668 107.707 9.38867C107.895 9.81055 107.988 10.2617 107.988 10.7422V22.5371ZM94.875 10.7422V22.5371H104.525V10.7422H94.875ZM129.943 22.5371C129.943 23.0176 129.85 23.4688 129.662 23.8906C129.486 24.3125 129.24 24.6816 128.924 24.998C128.619 25.3027 128.256 25.5488 127.834 25.7363C127.424 25.9121 126.979 26 126.498 26H117.199C116.73 26 116.285 25.9121 115.863 25.7363C115.441 25.5488 115.072 25.3027 114.756 24.998C114.451 24.6816 114.205 24.3125 114.018 23.8906C113.842 23.4688 113.754 23.0176 113.754 22.5371V10.7422C113.754 10.2617 113.842 9.81055 114.018 9.38867C114.205 8.9668 114.451 8.60352 114.756 8.29883C115.072 7.98242 115.441 7.73633 115.863 7.56055C116.285 7.37305 116.73 7.2793 117.199 7.2793H126.498C126.979 7.2793 127.424 7.37305 127.834 7.56055C128.256 7.73633 128.619 7.98242 128.924 8.29883C129.24 8.60352 129.486 8.9668 129.662 9.38867C129.85 9.81055 129.943 10.2617 129.943 10.7422V22.5371ZM117.199 10.7422V22.5371H126.498V10.7422H117.199ZM135.727 17.8262C135.727 17.3457 135.814 16.9004 135.99 16.4902C136.178 16.0684 136.424 15.6992 136.729 15.3828C137.045 15.0664 137.414 14.8203 137.836 14.6445C138.258 14.457 138.703 14.3633 139.172 14.3633H148.102V10.7422H136.799V7.2793H148.102C148.582 7.2793 149.033 7.37305 149.455 7.56055C149.877 7.73633 150.24 7.98242 150.545 8.29883C150.861 8.60352 151.107 8.9668 151.283 9.38867C151.471 9.81055 151.564 10.2617 151.564 10.7422V26H148.102V22.8359C148.066 23.2695 147.949 23.6797 147.75 24.0664C147.551 24.4531 147.293 24.793 146.977 25.0859C146.672 25.3672 146.32 25.5898 145.922 25.7539C145.523 25.918 145.102 26 144.656 26H139.172C138.703 26 138.258 25.9121 137.836 25.7363C137.414 25.5488 137.045 25.3027 136.729 24.998C136.424 24.6816 136.178 24.3125 135.99 23.8906C135.814 23.4688 135.727 23.0176 135.727 22.5371V17.8262ZM139.172 22.5371H148.102V17.8262H139.172V22.5371ZM160.793 10.7422V26H157.348V7.2793H160.793V10.584C160.816 10.127 160.922 9.69922 161.109 9.30078C161.297 8.89062 161.543 8.53906 161.848 8.24609C162.164 7.94141 162.527 7.70703 162.938 7.54297C163.348 7.36719 163.787 7.2793 164.256 7.2793H167.93C168.41 7.2793 168.855 7.37305 169.266 7.56055C169.688 7.73633 170.057 7.98242 170.373 8.29883C170.689 8.60352 170.936 8.9668 171.111 9.38867C171.299 9.81055 171.393 10.2617 171.393 10.7422V13.9062H167.93V10.7422H160.793ZM175.699 10.7422C175.699 10.2617 175.787 9.81055 175.963 9.38867C176.15 8.9668 176.396 8.60352 176.701 8.29883C177.018 7.98242 177.387 7.73633 177.809 7.56055C178.23 7.37305 178.676 7.2793 179.145 7.2793H188.795V0.0722656H192.258V26H188.795V22.8359C188.76 23.2695 188.643 23.6797 188.443 24.0664C188.244 24.4531 187.986 24.793 187.67 25.0859C187.365 25.3672 187.014 25.5898 186.615 25.7539C186.217 25.918 185.795 26 185.35 26H179.145C178.676 26 178.23 25.9121 177.809 25.7363C177.387 25.5488 177.018 25.3027 176.701 24.998C176.396 24.6816 176.15 24.3125 175.963 23.8906C175.787 23.4688 175.699 23.0176 175.699 22.5371V10.7422ZM179.145 22.5371H188.795V10.7422H179.145V22.5371Z" fill="#06CFCE"/>
</svg>
