<svg width="204" height="26" viewBox="0 0 204 26" fill="none" xmlns="http://www.w3.org/2000/svg">
<path d="M0.802734 0.792969H19.1719V4.39648H4.40625V11.6035H17.0098V15.207H4.40625V22.3965H19.1719V26H0.802734V0.792969ZM24.2168 10.7422C24.2168 10.2617 24.3047 9.81055 24.4805 9.38867C24.668 8.9668 24.9141 8.60352 25.2188 8.29883C25.5352 7.98242 25.9043 7.73633 26.3262 7.56055C26.748 7.37305 27.1934 7.2793 27.6621 7.2793H37.3125V0.0722656H40.7754V26H37.3125V22.8359C37.2773 23.2695 37.1602 23.6797 36.9609 24.0664C36.7617 24.4531 36.5039 24.793 36.1875 25.0859C35.8828 25.3672 35.5312 25.5898 35.1328 25.7539C34.7344 25.918 34.3125 26 33.8672 26H27.6621C27.1934 26 26.748 25.9121 26.3262 25.7363C25.9043 25.5488 25.5352 25.3027 25.2188 24.998C24.9141 24.6816 24.668 24.3125 24.4805 23.8906C24.3047 23.4688 24.2168 23.0176 24.2168 22.5371V10.7422ZM27.6621 22.5371H37.3125V10.7422H27.6621V22.5371ZM50.1797 7.2793V26H46.7168V7.2793H50.1797ZM46.541 0.0722656H50.3555V3.67578H46.541V0.0722656ZM55.0488 7.2793H59.6191V1.51367H63.082V7.2793H69.2344V10.7422H63.082V22.5371H69.2344V26H63.082C62.6133 26 62.168 25.9121 61.7461 25.7363C61.3242 25.5488 60.9551 25.3027 60.6387 24.998C60.3223 24.6816 60.0703 24.3125 59.8828 23.8906C59.707 23.4688 59.6191 23.0176 59.6191 22.5371V10.7422H55.0488V7.2793ZM86.1621 26V0.792969H99.9609C104.039 0.792969 106.078 2.83789 106.078 6.92773V10.5137C106.078 14.6035 104.039 16.6484 99.9609 16.6484H89.7656V26H86.1621ZM89.7656 13.0449H99.7676C100.729 13.0449 101.42 12.834 101.842 12.4121C102.264 11.9902 102.475 11.2988 102.475 10.3379V7.10352C102.475 6.14258 102.264 5.45117 101.842 5.0293C101.42 4.60742 100.729 4.39648 99.7676 4.39648H89.7656V13.0449ZM114.217 10.7422V26H110.771V7.2793H114.217V10.584C114.24 10.127 114.346 9.69922 114.533 9.30078C114.721 8.89062 114.967 8.53906 115.271 8.24609C115.588 7.94141 115.951 7.70703 116.361 7.54297C116.771 7.36719 117.211 7.2793 117.68 7.2793H121.354C121.834 7.2793 122.279 7.37305 122.689 7.56055C123.111 7.73633 123.48 7.98242 123.797 8.29883C124.113 8.60352 124.359 8.9668 124.535 9.38867C124.723 9.81055 124.816 10.2617 124.816 10.7422V13.9062H121.354V10.7422H114.217ZM145.312 22.5371C145.312 23.0176 145.219 23.4688 145.031 23.8906C144.855 24.3125 144.609 24.6816 144.293 24.998C143.988 25.3027 143.625 25.5488 143.203 25.7363C142.793 25.9121 142.348 26 141.867 26H132.568C132.1 26 131.654 25.9121 131.232 25.7363C130.811 25.5488 130.441 25.3027 130.125 24.998C129.82 24.6816 129.574 24.3125 129.387 23.8906C129.211 23.4688 129.123 23.0176 129.123 22.5371V10.7422C129.123 10.2617 129.211 9.81055 129.387 9.38867C129.574 8.9668 129.82 8.60352 130.125 8.29883C130.441 7.98242 130.811 7.73633 131.232 7.56055C131.654 7.37305 132.1 7.2793 132.568 7.2793H141.867C142.348 7.2793 142.793 7.37305 143.203 7.56055C143.625 7.73633 143.988 7.98242 144.293 8.29883C144.609 8.60352 144.855 8.9668 145.031 9.38867C145.219 9.81055 145.312 10.2617 145.312 10.7422V22.5371ZM132.568 10.7422V22.5371H141.867V10.7422H132.568ZM158.039 3.53516V7.2793H164.191V10.7422H158.039V26H154.576V10.7422H150.006V7.2793H154.576V3.53516C154.576 3.05469 154.664 2.60937 154.84 2.19922C155.027 1.77734 155.279 1.4082 155.596 1.0918C155.912 0.775391 156.281 0.529297 156.703 0.353516C157.125 0.166016 157.57 0.0722656 158.039 0.0722656H164.191V3.53516H158.039ZM172.523 7.2793V26H169.061V7.2793H172.523ZM168.885 0.0722656H172.699V3.67578H168.885V0.0722656ZM181.928 0.0722656V26H178.482V0.0722656H181.928ZM203.531 18.4062H191.139V22.5371H203.531V26H191.139C190.67 26 190.225 25.9121 189.803 25.7363C189.381 25.5488 189.012 25.3027 188.695 24.998C188.391 24.6816 188.145 24.3125 187.957 23.8906C187.781 23.4688 187.693 23.0176 187.693 22.5371V10.7422C187.693 10.2617 187.781 9.81055 187.957 9.38867C188.145 8.9668 188.391 8.60352 188.695 8.29883C189.012 7.98242 189.381 7.73633 189.803 7.56055C190.225 7.37305 190.67 7.2793 191.139 7.2793H200.068C200.549 7.2793 201 7.37305 201.422 7.56055C201.844 7.73633 202.207 7.98242 202.512 8.29883C202.828 8.60352 203.074 8.9668 203.25 9.38867C203.438 9.81055 203.531 10.2617 203.531 10.7422V18.4062ZM191.139 10.7422V14.9434H200.068V10.7422H191.139Z" fill="#06CFCE"/>
</svg>
