<svg width="67" height="26" viewBox="0 0 67 26" fill="none" xmlns="http://www.w3.org/2000/svg">
<path d="M13.9688 0.792969L23.6895 26H20.0859L17.8535 20.1992H6.48047L4.24805 26H0.644531L10.3652 0.792969H13.9688ZM7.85156 16.5957H16.4648L12.1758 5.48633L7.85156 16.5957ZM27.6621 10.7422C27.6621 10.2617 27.75 9.81055 27.9258 9.38867C28.1133 8.9668 28.3594 8.60352 28.6641 8.29883C28.9805 7.98242 29.3496 7.73633 29.7715 7.56055C30.1934 7.37305 30.6387 7.2793 31.1074 7.2793H40.7578V0.0722656H44.2207V26H40.7578V22.8359C40.7227 23.2695 40.6055 23.6797 40.4062 24.0664C40.207 24.4531 39.9492 24.793 39.6328 25.0859C39.3281 25.3672 38.9766 25.5898 38.5781 25.7539C38.1797 25.918 37.7578 26 37.3125 26H31.1074C30.6387 26 30.1934 25.9121 29.7715 25.7363C29.3496 25.5488 28.9805 25.3027 28.6641 24.998C28.3594 24.6816 28.1133 24.3125 27.9258 23.8906C27.75 23.4688 27.6621 23.0176 27.6621 22.5371V10.7422ZM31.1074 22.5371H40.7578V10.7422H31.1074V22.5371ZM49.9863 10.7422C49.9863 10.2617 50.0742 9.81055 50.25 9.38867C50.4375 8.9668 50.6836 8.60352 50.9883 8.29883C51.3047 7.98242 51.6738 7.73633 52.0957 7.56055C52.5176 7.37305 52.9629 7.2793 53.4316 7.2793H63.082V0.0722656H66.5449V26H63.082V22.8359C63.0469 23.2695 62.9297 23.6797 62.7305 24.0664C62.5312 24.4531 62.2734 24.793 61.957 25.0859C61.6523 25.3672 61.3008 25.5898 60.9023 25.7539C60.5039 25.918 60.082 26 59.6367 26H53.4316C52.9629 26 52.5176 25.9121 52.0957 25.7363C51.6738 25.5488 51.3047 25.3027 50.9883 24.998C50.6836 24.6816 50.4375 24.3125 50.25 23.8906C50.0742 23.4688 49.9863 23.0176 49.9863 22.5371V10.7422ZM53.4316 22.5371H63.082V10.7422H53.4316V22.5371Z" fill="#06CFCE"/>
</svg>
