<svg width="115" height="26" viewBox="0 0 115 26" fill="none" xmlns="http://www.w3.org/2000/svg">
<path d="M12.8613 22.3965C14.5371 22.3965 15.8262 21.9453 16.7285 21.043C17.6309 20.1406 18.082 18.8516 18.082 17.1758V9.61719C18.082 8.79688 17.9648 8.06445 17.7305 7.41992C17.4961 6.77539 17.1504 6.23047 16.6934 5.78516C16.248 5.32812 15.7031 4.98242 15.0586 4.74805C14.4141 4.51367 13.6816 4.39648 12.8613 4.39648H3.65039V22.3965H12.8613ZM0.046875 26V0.792969H12.8613C14.209 0.792969 15.4219 1.00391 16.5 1.42578C17.5898 1.83594 18.5156 2.42773 19.2773 3.20117C20.0508 3.96289 20.6426 4.88867 21.0527 5.97852C21.4746 7.06836 21.6855 8.28125 21.6855 9.61719V17.1758C21.6855 18.5117 21.4746 19.7246 21.0527 20.8145C20.6426 21.9043 20.0508 22.8359 19.2773 23.6094C18.5156 24.3711 17.5898 24.9629 16.5 25.3848C15.4219 25.7949 14.209 26 12.8613 26H0.046875ZM42.9551 18.4062H30.5625V22.5371H42.9551V26H30.5625C30.0938 26 29.6484 25.9121 29.2266 25.7363C28.8047 25.5488 28.4355 25.3027 28.1191 24.998C27.8145 24.6816 27.5684 24.3125 27.3809 23.8906C27.2051 23.4688 27.1172 23.0176 27.1172 22.5371V10.7422C27.1172 10.2617 27.2051 9.81055 27.3809 9.38867C27.5684 8.9668 27.8145 8.60352 28.1191 8.29883C28.4355 7.98242 28.8047 7.73633 29.2266 7.56055C29.6484 7.37305 30.0938 7.2793 30.5625 7.2793H39.4922C39.9727 7.2793 40.4238 7.37305 40.8457 7.56055C41.2676 7.73633 41.6309 7.98242 41.9355 8.29883C42.252 8.60352 42.498 8.9668 42.6738 9.38867C42.8613 9.81055 42.9551 10.2617 42.9551 10.7422V18.4062ZM30.5625 10.7422V14.9434H39.4922V10.7422H30.5625ZM52.1836 0.0722656V26H48.7383V0.0722656H52.1836ZM73.7871 18.4062H61.3945V22.5371H73.7871V26H61.3945C60.9258 26 60.4805 25.9121 60.0586 25.7363C59.6367 25.5488 59.2676 25.3027 58.9512 24.998C58.6465 24.6816 58.4004 24.3125 58.2129 23.8906C58.0371 23.4688 57.9492 23.0176 57.9492 22.5371V10.7422C57.9492 10.2617 58.0371 9.81055 58.2129 9.38867C58.4004 8.9668 58.6465 8.60352 58.9512 8.29883C59.2676 7.98242 59.6367 7.73633 60.0586 7.56055C60.4805 7.37305 60.9258 7.2793 61.3945 7.2793H70.3242C70.8047 7.2793 71.2559 7.37305 71.6777 7.56055C72.0996 7.73633 72.4629 7.98242 72.7676 8.29883C73.084 8.60352 73.3301 8.9668 73.5059 9.38867C73.6934 9.81055 73.7871 10.2617 73.7871 10.7422V18.4062ZM61.3945 10.7422V14.9434H70.3242V10.7422H61.3945ZM78.4805 7.2793H83.0508V1.51367H86.5137V7.2793H92.666V10.7422H86.5137V22.5371H92.666V26H86.5137C86.0449 26 85.5996 25.9121 85.1777 25.7363C84.7559 25.5488 84.3867 25.3027 84.0703 24.998C83.7539 24.6816 83.502 24.3125 83.3145 23.8906C83.1387 23.4688 83.0508 23.0176 83.0508 22.5371V10.7422H78.4805V7.2793ZM114.287 18.4062H101.895V22.5371H114.287V26H101.895C101.426 26 100.98 25.9121 100.559 25.7363C100.137 25.5488 99.7676 25.3027 99.4512 24.998C99.1465 24.6816 98.9004 24.3125 98.7129 23.8906C98.5371 23.4688 98.4492 23.0176 98.4492 22.5371V10.7422C98.4492 10.2617 98.5371 9.81055 98.7129 9.38867C98.9004 8.9668 99.1465 8.60352 99.4512 8.29883C99.7676 7.98242 100.137 7.73633 100.559 7.56055C100.98 7.37305 101.426 7.2793 101.895 7.2793H110.824C111.305 7.2793 111.756 7.37305 112.178 7.56055C112.6 7.73633 112.963 7.98242 113.268 8.29883C113.584 8.60352 113.83 8.9668 114.006 9.38867C114.193 9.81055 114.287 10.2617 114.287 10.7422V18.4062ZM101.895 10.7422V14.9434H110.824V10.7422H101.895Z" fill="#06CFCE"/>
</svg>
